<?xml version="1.0" encoding="iso-8859-1"?>
<!-- Generator: Adobe Illustrator 22.0.1, SVG Export Plug-In . SVG Version: 6.00 Build 0)  -->
<svg version="1.1" id="Capa_1" xmlns="http://www.w3.org/2000/svg" xmlns:xlink="http://www.w3.org/1999/xlink" x="0px" y="0px"
	 viewBox="-49 141 512 512" style="enable-background:new -49 141 512 512;" xml:space="preserve">
<linearGradient id="SVGID_1_" gradientUnits="userSpaceOnUse" x1="66.2" y1="396.8634" x2="347.8" y2="396.8634">
	<stop  offset="0" style="stop-color:#747BDB"/>
	<stop  offset="1" style="stop-color:#35CDE8"/>
</linearGradient>
<path style="fill:url(#SVGID_1_);" d="M339.8,532.36h-46.96v-30.72c0-4.418-3.582-8-8-8h-40L218.92,386.2l45.68,24
	c3.915,2.048,8.749,0.535,10.797-3.38c0.806-1.541,1.088-3.304,0.803-5.02l-10.96-64l46.56-45.36
	c3.183-3.064,3.279-8.129,0.214-11.312c-1.232-1.28-2.856-2.113-4.614-2.368l-64-9.36l-29.2-58.32
	c-1.971-3.954-6.774-5.562-10.729-3.591c-1.555,0.775-2.816,2.036-3.591,3.591L171.08,269l-64,9.36
	c-4.372,0.634-7.403,4.693-6.768,9.066c0.255,1.758,1.088,3.382,2.368,4.614l46.56,45.36l-10.96,64
	c-0.724,4.359,2.222,8.479,6.58,9.203c1.716,0.285,3.478,0.003,5.02-0.803l45.68-24l-26.24,107.84h-40c-4.418,0-8,3.582-8,8v30.72
	H74.2c-4.418,0-8,3.582-8,8v38.72c0,4.418,3.582,8,8,8h265.6c4.418,0,8-3.582,8-8v-38.72C347.8,535.942,344.218,532.36,339.8,532.36
	z M156.36,388.36l8.96-52.24c0.426-2.585-0.441-5.215-2.32-7.04l-37.92-36.88l52.48-8c2.602-0.391,4.845-2.036,6-4.4L207,232.68
	l23.44,47.52c1.155,2.364,3.398,4.009,6,4.4l52.48,8L251,329.16c-1.879,1.825-2.746,4.455-2.32,7.04l8.96,52.24l-46.88-24.64h-0.72
	h-0.64c-1.529-0.53-3.191-0.53-4.72,0h-0.64h-0.72L156.36,388.36z M207,405l21.04,88h-42.08L207,405z M137.16,509h139.68v22.72
	H137.16V509z M331.8,571.08H82.2v-22.72h249.6V571.08z"/>
</svg>
