<?xml version="1.0" encoding="iso-8859-1"?>
<!-- Generator: Adobe Illustrator 22.0.1, SVG Export Plug-In . SVG Version: 6.00 Build 0)  -->
<svg version="1.1" id="Capa_1" xmlns="http://www.w3.org/2000/svg" xmlns:xlink="http://www.w3.org/1999/xlink" x="0px" y="0px"
	 viewBox="-49 141 512 512" style="enable-background:new -49 141 512 512;" xml:space="preserve">
<path d="M175,261c-39.696,0-72,32.304-72,72s32.304,72,72,72s72-32.304,72-72S214.696,261,175,261z M175,389
	c-30.88,0-56-25.12-56-56s25.12-56,56-56s56,25.12,56,56S205.88,389,175,389z"/>
<path d="M359,269h-8c-8.824,0-16-7.176-16-16c0-4.416-3.576-8-8-8h-80v16h73.016c3.552,13.784,16.104,24,30.984,24v96
	c-14.88,0-27.432,10.216-30.984,24H247v16h80c4.424,0,8-3.584,8-8c0-8.824,7.176-16,16-16h8c4.424,0,8-3.584,8-8V277
	C367,272.584,363.424,269,359,269z"/>
<path d="M-1,381v-96c14.88,0,27.424-10.216,30.992-24H103v-16H23c-4.416,0-8,3.584-8,8c0,8.824-7.176,16-16,16h-8
	c-4.416,0-8,3.584-8,8v112c0,4.416,3.584,8,8,8h8c8.824,0,16,7.176,16,16c0,4.416,3.584,8,8,8h80v-16H29.992
	C26.424,391.216,13.88,381-1,381z"/>
<rect x="271" y="309" width="16" height="56"/>
<rect x="303" y="309" width="16" height="56"/>
<rect x="31" y="309" width="16" height="56"/>
<rect x="63" y="309" width="16" height="56"/>
<path d="M167,461c0,39.696,32.304,72,72,72c39.704,0,72-32.304,72-72c0-2.68-0.208-5.344-0.504-8H391c4.424,0,8-3.584,8-8V221
	c0-4.416-3.576-8-8-8H-41c-4.416,0-8,3.584-8,8v224c0,4.416,3.584,8,8,8h208.504C167.208,455.656,167,458.32,167,461z M295,461
	c0,30.88-25.128,56-56,56c-30.88,0-56-25.12-56-56c0-2.688,0.24-5.352,0.616-8h110.76C294.76,455.648,295,458.312,295,461z M-33,229
	h416v208H-33V229z"/>
<path d="M455,341h-40v16h32v208H31v-96H15v104c0,4.416,3.584,8,8,8h432c4.424,0,8-3.584,8-8V349C463,344.584,459.424,341,455,341z"
	/>
<path d="M384.016,533H311v16h80c4.424,0,8-3.584,8-8c0-8.824,7.176-16,16-16h8c4.424,0,8-3.584,8-8V405c0-4.416-3.576-8-8-8h-8v112
	C400.12,509,387.568,519.216,384.016,533z"/>
<path d="M47,469v48c0,4.416,3.584,8,8,8h8c8.824,0,16,7.176,16,16c0,4.416,3.584,8,8,8h80v-16H93.992
	c-3.56-13.784-16.104-24-30.992-24v-40H47z"/>
</svg>
