<?xml version="1.0" encoding="iso-8859-1"?>
<!-- Generator: Adobe Illustrator 22.0.1, SVG Export Plug-In . SVG Version: 6.00 Build 0)  -->
<svg version="1.1" id="Layer_1" xmlns="http://www.w3.org/2000/svg" xmlns:xlink="http://www.w3.org/1999/xlink" x="0px" y="0px"
	 viewBox="-49 141 512 512" style="enable-background:new -49 141 512 512;" xml:space="preserve">
<linearGradient id="SVGID_1_" gradientUnits="userSpaceOnUse" x1="-6.3333" y1="397" x2="420.3333" y2="397">
	<stop  offset="0" style="stop-color:#747BDB"/>
	<stop  offset="1" style="stop-color:#35CDE8"/>
</linearGradient>
<path transform="translate(1 1)" style="fill:url(#SVGID_1_);" d="M265.733,225.333H146.267c-9.387,0-17.067-7.68-17.067-17.067
	v-51.2c0-9.387,7.68-17.067,17.067-17.067h119.467c9.387,0,17.067,7.68,17.067,17.067v51.2
	C282.8,217.653,275.12,225.333,265.733,225.333z M265.733,208.267v8.533V208.267L265.733,208.267z M146.267,157.067v51.2h119.467
	v-51.2H146.267z M393.733,652H18.267c-14.507,0-25.6-11.093-25.6-25.6V182.667c0-14.507,11.093-25.6,25.6-25.6H129.2
	c0-9.387,7.68-17.067,17.067-17.067h119.467c9.387,0,17.067,7.68,17.067,17.067h110.933c14.507,0,25.6,11.093,25.6,25.6V626.4
	C419.333,640.907,408.24,652,393.733,652z M18.267,174.133c-5.12,0-8.533,3.413-8.533,8.533V626.4c0,5.12,3.413,8.533,8.533,8.533
	h375.467c5.12,0,8.533-3.413,8.533-8.533V182.667c0-5.12-3.413-8.533-8.533-8.533H274.267c-5.12,0-8.533-3.413-8.533-8.533v-8.533
	H146.267v8.533c0,5.12-3.413,8.533-8.533,8.533H18.267z M368.133,617.867H43.867c-9.387,0-17.067-7.68-17.067-17.067V208.267
	c0-9.387,7.68-17.067,17.067-17.067h93.867c5.12,0,8.533,3.413,8.533,8.533v8.533h119.467v-8.533c0-5.12,3.413-8.533,8.533-8.533
	h93.867c9.387,0,17.067,7.68,17.067,17.067V600.8C385.2,610.187,377.52,617.867,368.133,617.867z M43.867,208.267V600.8h324.267
	V208.267H282.8c0,9.387-7.68,17.067-17.067,17.067H146.267c-9.387,0-17.067-7.68-17.067-17.067H43.867z M296.453,548.747
	c4.267-2.56,5.12-7.68,2.56-11.947l-17.067-25.6c-2.56-4.267-7.68-5.12-11.947-2.56c-4.267,2.56-5.12,7.68-2.56,11.947l17.067,25.6
	c1.707,1.707,4.267,3.413,6.827,3.413C293.04,549.6,294.747,548.747,296.453,548.747z M298.16,546.187l42.667-59.733
	c3.413-4.267,1.707-9.387-1.707-11.947c-4.267-3.413-9.387-1.707-11.947,1.707l-42.667,59.733
	c-3.413,4.267-1.707,9.387,1.707,11.947c1.707,0.853,3.413,1.707,5.12,1.707C293.893,549.6,296.453,548.747,298.16,546.187z
	 M299.867,335.413H112.133c-3.413,0-5.973-1.707-7.68-4.267s-0.853-5.973,0.853-8.533l36.693-51.2
	c5.12-7.68,13.653-11.947,23.04-11.947h81.92c9.387,0,17.92,4.267,23.04,11.947l36.693,51.2c1.707,2.56,1.707,5.973,0.853,8.533
	C305.84,333.707,303.28,335.413,299.867,335.413z M128.347,318.347H282.8l-27.307-38.4c-1.707-2.56-5.12-4.267-9.387-4.267h-81.92
	c-3.413,0-6.827,1.707-9.387,4.267L128.347,318.347z M137.733,421.6c-18.773,0-34.133-15.36-34.133-34.133
	s15.36-34.133,34.133-34.133s34.133,15.36,34.133,34.133S156.507,421.6,137.733,421.6z M137.733,370.4
	c-9.387,0-17.067,7.68-17.067,17.067c0,9.387,7.68,17.067,17.067,17.067c9.387,0,17.067-7.68,17.067-17.067
	C154.8,378.08,147.12,370.4,137.733,370.4z M274.267,421.6c-18.773,0-34.133-15.36-34.133-34.133s15.36-34.133,34.133-34.133
	s34.133,15.36,34.133,34.133S293.04,421.6,274.267,421.6z M274.267,370.4c-9.387,0-17.067,7.68-17.067,17.067
	c0,9.387,7.68,17.067,17.067,17.067s17.067-7.68,17.067-17.067C291.333,378.08,283.653,370.4,274.267,370.4z M320.347,396h-20.48
	c-5.12,0-8.533-3.413-8.533-8.533c0-9.387-7.68-17.067-17.067-17.067s-17.067,7.68-17.067,17.067c0,5.12-3.413,8.533-8.533,8.533
	h-85.333c-5.12,0-8.533-3.413-8.533-8.533c0-9.387-7.68-17.067-17.067-17.067c-9.387,0-17.067,7.68-17.067,17.067
	c0,5.12-3.413,8.533-8.533,8.533h-20.48c-12.8,0-22.187-9.387-22.187-22.187v-33.28c0-11.947,9.387-22.187,22.187-22.187H321.2
	c11.947,0,22.187,9.387,22.187,22.187v33.28C342.533,386.613,333.147,396,320.347,396z M307.547,378.933H321.2
	c2.56,0,5.12-2.56,5.12-5.12v-33.28c0-2.56-2.56-5.12-5.12-5.12H91.653c-2.56,0-5.12,2.56-5.12,5.12v33.28
	c0,2.56,2.56,5.12,5.12,5.12h13.653c3.413-14.507,17.067-25.6,33.28-25.6s29.013,11.093,33.28,25.6h70.827
	c3.413-14.507,17.067-25.6,33.28-25.6S303.28,364.427,307.547,378.933z M214.533,472.8c0-5.12-3.413-8.533-8.533-8.533H78
	c-5.12,0-8.533,3.413-8.533,8.533s3.413,8.533,8.533,8.533h128C211.12,481.333,214.533,477.92,214.533,472.8z M214.533,515.467
	c0-5.12-3.413-8.533-8.533-8.533H78c-5.12,0-8.533,3.413-8.533,8.533c0,5.12,3.413,8.533,8.533,8.533h128
	C211.12,524,214.533,520.587,214.533,515.467z M214.533,558.133c0-5.12-3.413-8.533-8.533-8.533H78c-5.12,0-8.533,3.413-8.533,8.533
	s3.413,8.533,8.533,8.533h128C211.12,566.667,214.533,563.253,214.533,558.133z M214.533,327.733V268
	c0-5.12-3.413-8.533-8.533-8.533c-5.12,0-8.533,3.413-8.533,8.533v59.733c0,5.12,3.413,6.827,8.533,6.827
	C211.12,334.56,214.533,332.853,214.533,327.733z"/>
</svg>
