<?xml version="1.0" encoding="iso-8859-1"?>
<!-- Generator: Adobe Illustrator 22.0.1, SVG Export Plug-In . SVG Version: 6.00 Build 0)  -->
<svg version="1.1" id="Capa_1" xmlns="http://www.w3.org/2000/svg" xmlns:xlink="http://www.w3.org/1999/xlink" x="0px" y="0px"
	 viewBox="0 0 512 512" style="enable-background:new 0 0 512 512;" xml:space="preserve">
<linearGradient id="SVGID_1_" gradientUnits="userSpaceOnUse" x1="0" y1="256" x2="512" y2="256">
	<stop  offset="0" style="stop-color:#747BDB"/>
	<stop  offset="1" style="stop-color:#35CDE8"/>
</linearGradient>
<path style="fill:url(#SVGID_1_);" d="M488.468,232.468c-10.353,0-19.16,6.724-22.3,16.032H399.58
	c-3.786-73.321-62.759-132.293-136.08-136.08V45.832c9.308-3.139,16.032-11.946,16.032-22.3C279.532,10.557,268.976,0,256,0
	s-23.532,10.557-23.532,23.532c0,10.354,6.724,19.16,16.032,22.3v66.588c-73.321,3.786-132.293,62.759-136.08,136.08H45.832
	c-3.139-9.308-11.946-16.032-22.3-16.032C10.557,232.468,0,243.024,0,256c0,12.976,10.557,23.532,23.532,23.532
	c10.354,0,19.16-6.724,22.3-16.032h66.588c3.786,73.321,62.759,132.293,136.08,136.08v66.588
	c-9.308,3.139-16.032,11.946-16.032,22.3C232.468,501.443,243.024,512,256,512c12.976,0,23.532-10.557,23.532-23.532
	c0-10.354-6.724-19.16-16.032-22.3V399.58c73.321-3.786,132.293-62.759,136.08-136.08h66.588c3.139,9.308,11.946,16.032,22.3,16.032
	C501.443,279.532,512,268.976,512,256S501.443,232.468,488.468,232.468z M256,15c4.705,0,8.532,3.828,8.532,8.532
	s-3.828,8.532-8.532,8.532s-8.532-3.828-8.532-8.532S251.295,15,256,15z M23.532,264.532c-4.705,0-8.532-3.828-8.532-8.532
	s3.828-8.532,8.532-8.532s8.532,3.828,8.532,8.532C32.064,260.704,28.237,264.532,23.532,264.532z M256,497
	c-4.705,0-8.532-3.828-8.532-8.532s3.828-8.532,8.532-8.532c4.704,0,8.532,3.828,8.532,8.532S260.705,497,256,497z M256,384.774
	c-71.006,0-128.774-57.768-128.774-128.774S184.994,127.226,256,127.226S384.774,184.994,384.774,256S327.006,384.774,256,384.774z
	 M488.468,264.532c-4.705,0-8.532-3.828-8.532-8.532s3.828-8.532,8.532-8.532S497,251.295,497,256
	C497,260.705,493.172,264.532,488.468,264.532z M312.836,273.563l-24.963-9.985c-0.198-0.079-0.325-0.267-0.325-0.479v-15.114
	c0-0.065-0.008-0.129-0.01-0.193c5.033-6.637,8.026-14.902,8.026-23.855v-24.048c0-17.396-17.749-31.548-39.564-31.548
	s-39.564,14.152-39.564,31.548v24.048c0,8.953,2.993,17.218,8.026,23.855c-0.002,0.065-0.01,0.128-0.01,0.193v15.114
	c0,0.212-0.127,0.4-0.325,0.479l-24.963,9.985c-8.986,3.594-14.793,12.171-14.793,21.849v24.717c0,8.556,6.96,15.516,15.516,15.516
	h64.127c4.142,0,7.5-3.358,7.5-7.5s-3.358-7.5-7.5-7.5h-64.127c-0.285,0-0.516-0.231-0.516-0.516v-24.717
	c0-3.509,2.105-6.619,5.364-7.922l24.964-9.985c5.925-2.371,9.753-8.025,9.753-14.406v-3.239c5.039,2.33,10.642,3.641,16.548,3.641
	c5.906,0,11.51-1.31,16.548-3.641v3.239c0,6.381,3.828,12.036,9.753,14.406l24.964,9.986c3.258,1.303,5.363,4.412,5.363,7.921
	v24.717c0,0.285-0.231,0.516-0.516,0.516h-16.034c-4.142,0-7.5,3.358-7.5,7.5s3.358,7.5,7.5,7.5h16.034
	c8.556,0,15.516-6.96,15.516-15.516v-24.717C327.629,285.733,321.822,277.157,312.836,273.563z M231.436,223.936v-24.048
	c0-8.97,11.249-16.548,24.564-16.548s24.564,7.578,24.564,16.548v24.048c0,13.545-11.02,24.564-24.564,24.564
	S231.436,237.48,231.436,223.936z M83.432,222.514c6.653-34.465,23.35-65.862,48.285-90.797
	c24.935-24.936,56.333-41.632,90.797-48.285c4.066-0.782,8.001,1.876,8.786,5.943s-1.876,8.001-5.943,8.786
	c-31.512,6.083-60.224,21.354-83.033,44.163s-38.08,51.521-44.163,83.033c-0.692,3.587-3.834,6.08-7.356,6.08
	c-0.472,0-0.95-0.045-1.43-0.137C85.308,230.515,82.648,226.581,83.432,222.514z M280.7,89.375c0.786-4.067,4.719-6.723,8.786-5.943
	c34.464,6.653,65.862,23.349,90.797,48.285c24.935,24.935,41.632,56.332,48.285,90.797c0.785,4.067-1.876,8.001-5.943,8.786
	c-0.48,0.092-0.959,0.137-1.43,0.137c-3.522,0-6.664-2.493-7.356-6.08c-6.083-31.512-21.354-60.224-44.163-83.033
	s-51.521-38.08-83.033-44.163C282.576,97.376,279.916,93.442,280.7,89.375z M231.3,422.625c-0.692,3.587-3.834,6.08-7.356,6.08
	c-0.472,0-0.95-0.045-1.43-0.137c-34.464-6.653-65.861-23.35-90.797-48.285c-24.935-24.936-41.632-56.333-48.285-90.797
	c-0.785-4.067,1.876-8.001,5.943-8.786c4.064-0.783,8.001,1.876,8.786,5.943c6.083,31.512,21.354,60.224,44.163,83.033
	s51.521,38.08,83.033,44.163C229.424,414.624,232.084,418.558,231.3,422.625z M428.568,289.486
	c-6.653,34.464-23.35,65.861-48.285,90.797c-24.936,24.935-56.333,41.632-90.797,48.285c-0.48,0.092-0.959,0.137-1.43,0.137
	c-3.522,0-6.664-2.493-7.356-6.08c-0.785-4.067,1.876-8.001,5.943-8.786c31.512-6.083,60.224-21.354,83.033-44.163
	s38.08-51.521,44.163-83.033c0.786-4.068,4.719-6.722,8.786-5.943C426.692,281.485,429.352,285.419,428.568,289.486z"/>
</svg>
