<?xml version="1.0" encoding="iso-8859-1"?>
<!-- Generator: Adobe Illustrator 22.0.1, SVG Export Plug-In . SVG Version: 6.00 Build 0)  -->
<svg version="1.1" id="Capa_1" xmlns="http://www.w3.org/2000/svg" xmlns:xlink="http://www.w3.org/1999/xlink" x="0px" y="0px"
	 viewBox="-49 141 512 512" style="enable-background:new -49 141 512 512;" xml:space="preserve">
<g>
	<linearGradient id="SVGID_1_" gradientUnits="userSpaceOnUse" x1="-49.0007" y1="397.0004" x2="463" y2="397.0004">
		<stop  offset="0" style="stop-color:#747BDB"/>
		<stop  offset="1" style="stop-color:#35CDE8"/>
	</linearGradient>
	<path style="fill:url(#SVGID_1_);" d="M439.52,322.794h-50.367l0,0c0-0.002,0,0.002,0,0l-25.461-99.848l0,0l0,0
		c-3.199-12.546-16.01-20.147-28.553-16.95l-58.049,14.802c-3.915,0.998-6.28,4.982-5.282,8.897
		c0.999,3.915,4.982,6.278,8.897,5.282l58.049-14.802c4.731-1.203,9.554,1.66,10.76,6.387l2.82,11.061l-383.605,97.816l-2.82-11.06
		c-0.584-2.29-0.241-4.671,0.965-6.703c1.207-2.032,3.133-3.473,5.423-4.057l263.859-67.283c3.915-0.998,6.28-4.982,5.282-8.897
		c-0.999-3.915-4.98-6.278-8.897-5.282l-263.86,67.283c-12.546,3.199-20.15,16.008-16.951,28.553L5.838,540.185
		c2.705,10.607,12.278,17.682,22.755,17.681c1.914,0,3.86-0.237,5.798-0.731l3.464-0.883v9.003c0,12.947,10.533,23.48,23.48,23.48
		H439.52c12.947,0,23.48-10.533,23.48-23.48V346.274C463,333.327,452.467,322.794,439.52,322.794z M37.856,541.152l-7.079,1.805
		c-4.727,1.206-9.554-1.66-10.76-6.387l-33.12-129.884l50.959-12.994V541.152z M37.856,346.273L37.856,346.273v32.319
		l-54.574,13.916l0,0l-10.937-42.892l70.687-18.025C39.798,335.616,37.856,340.721,37.856,346.273z M370.502,308.869l3.551,13.924
		h-58.157L370.502,308.869z M355.95,251.799l10.937,42.892L256.68,322.794H77.535L355.95,251.799z M448.368,565.255
		c0,4.879-3.969,8.848-8.848,8.848H61.336c-4.879,0-8.849-3.969-8.849-8.848v-18.418V346.274c0-4.879,3.969-8.848,8.849-8.848
		H439.52c4.879,0,8.848,3.969,8.848,8.848L448.368,565.255L448.368,565.255z"/>
	<linearGradient id="SVGID_2_" gradientUnits="userSpaceOnUse" x1="75.618" y1="510.211" x2="249.658" y2="510.211">
		<stop  offset="0" style="stop-color:#747BDB"/>
		<stop  offset="1" style="stop-color:#35CDE8"/>
	</linearGradient>
	<path style="fill:url(#SVGID_2_);" d="M82.934,517.527h159.408c4.04,0,7.316-3.275,7.316-7.316c0-4.04-3.275-7.316-7.316-7.316
		H82.934c-4.04,0-7.316,3.275-7.316,7.316C75.618,514.252,78.894,517.527,82.934,517.527z"/>
	<linearGradient id="SVGID_3_" gradientUnits="userSpaceOnUse" x1="259.746" y1="422.4125" x2="412.419" y2="422.4125">
		<stop  offset="0" style="stop-color:#747BDB"/>
		<stop  offset="1" style="stop-color:#35CDE8"/>
	</linearGradient>
	<path style="fill:url(#SVGID_3_);" d="M307.911,470.576c10.224,0,20.02-3.208,28.187-9.125c7.926,5.733,17.651,9.125,28.158,9.125
		c26.557,0,48.163-21.606,48.163-48.163c0-26.558-21.606-48.164-48.163-48.164c-10.508,0-20.232,3.392-28.158,9.125
		c-8.167-5.917-17.964-9.125-28.188-9.125c-26.558,0-48.164,21.606-48.164,48.164C259.748,448.97,281.354,470.576,307.911,470.576z
		 M338.39,401.098c0.001-0.001,0.002-0.002,0.003-0.004c0.302-0.366,0.615-0.722,0.932-1.075c0.073-0.081,0.145-0.162,0.219-0.242
		c0.27-0.295,0.547-0.583,0.827-0.867c0.122-0.124,0.244-0.247,0.368-0.369c6.057-5.968,14.364-9.66,23.519-9.66
		c18.489,0,33.531,15.042,33.531,33.532c0,18.489-15.042,33.531-33.531,33.531c-9.155,0-17.461-3.691-23.518-9.659
		c-0.125-0.123-0.248-0.247-0.371-0.372c-0.279-0.284-0.556-0.571-0.825-0.865c-0.074-0.081-0.147-0.163-0.221-0.245
		c-0.316-0.352-0.628-0.708-0.929-1.073c-0.002-0.002-0.003-0.004-0.005-0.006c-4.785-5.798-7.663-13.226-7.663-21.313
		C330.725,414.325,333.604,406.897,338.39,401.098z M307.911,388.881c6.274,0,12.319,1.733,17.559,4.967
		c-5.09,6.865-8.212,14.902-9.104,23.458c-0.015,0.142-0.028,0.283-0.042,0.425c-0.058,0.609-0.104,1.22-0.14,1.833
		c-0.011,0.188-0.024,0.374-0.033,0.562c-0.035,0.759-0.058,1.52-0.058,2.285s0.023,1.526,0.058,2.285
		c0.009,0.188,0.022,0.375,0.033,0.563c0.035,0.613,0.082,1.224,0.14,1.833c0.014,0.142,0.027,0.284,0.042,0.426
		c0.892,8.556,4.013,16.593,9.104,23.458c-5.24,3.234-11.285,4.967-17.559,4.967c-18.49,0-33.532-15.042-33.532-33.531
		C274.38,403.924,289.422,388.881,307.911,388.881z"/>
	<linearGradient id="SVGID_4_" gradientUnits="userSpaceOnUse" x1="75.619" y1="422.413" x2="162.433" y2="422.413">
		<stop  offset="0" style="stop-color:#747BDB"/>
		<stop  offset="1" style="stop-color:#35CDE8"/>
	</linearGradient>
	<path style="fill:url(#SVGID_4_);" d="M102.983,465.82h32.086c15.088,0,27.364-12.275,27.364-27.364V406.37
		c0-15.088-12.275-27.364-27.364-27.364h-32.086c-15.089,0-27.364,12.275-27.364,27.364v32.086
		C75.618,453.545,87.894,465.82,102.983,465.82z M90.25,420.003h15.607c4.04,0,7.316-3.275,7.316-7.316
		c0-4.04-3.275-7.316-7.316-7.316H90.3c0.512-6.554,5.998-11.734,12.682-11.734h32.086c6.684,0,12.169,5.18,12.682,11.734h-15.557
		c-4.04,0-7.316,3.275-7.316,7.316c0,4.04,3.275,7.316,7.316,7.316H147.8v6.34h-15.607c-4.04,0-7.316,3.275-7.316,7.316
		s3.275,7.316,7.316,7.316h15.355c-1.173,5.818-6.322,10.214-12.48,10.214h-32.086c-6.159,0-11.308-4.395-12.48-10.214h15.355
		c4.04,0,7.316-3.275,7.316-7.316s-3.275-7.316-7.316-7.316H90.25V420.003z"/>
	<linearGradient id="SVGID_5_" gradientUnits="userSpaceOnUse" x1="152.07" y1="542.401" x2="421.435" y2="542.401">
		<stop  offset="0" style="stop-color:#747BDB"/>
		<stop  offset="1" style="stop-color:#35CDE8"/>
	</linearGradient>
	<path style="fill:url(#SVGID_5_);" d="M414.119,535.085H159.386c-4.04,0-7.316,3.275-7.316,7.316s3.275,7.316,7.316,7.316h254.733
		c4.04,0,7.316-3.275,7.316-7.316S418.16,535.085,414.119,535.085z"/>
	<linearGradient id="SVGID_6_" gradientUnits="userSpaceOnUse" x1="75.619" y1="542.401" x2="120.064" y2="542.401">
		<stop  offset="0" style="stop-color:#747BDB"/>
		<stop  offset="1" style="stop-color:#35CDE8"/>
	</linearGradient>
	<path style="fill:url(#SVGID_6_);" d="M112.748,535.085H82.935c-4.04,0-7.316,3.275-7.316,7.316s3.275,7.316,7.316,7.316h29.813
		c4.04,0,7.316-3.275,7.316-7.316S116.788,535.085,112.748,535.085z"/>
</g>
</svg>
