<?xml version="1.0" encoding="utf-8"?>
<!-- Generator: Adobe Illustrator 22.0.1, SVG Export Plug-In . SVG Version: 6.00 Build 0)  -->
<svg version="1.1" id="Слой_1" xmlns="http://www.w3.org/2000/svg" xmlns:xlink="http://www.w3.org/1999/xlink" x="0px" y="0px"
	 viewBox="0 0 430.5 439.5" style="enable-background:new 0 0 430.5 439.5;" xml:space="preserve">
<style type="text/css">
	.st0{fill:url(#SVGID_1_);}
	.st1{fill:url(#SVGID_2_);}
	.st2{fill:url(#SVGID_3_);}
</style>
<g>
	<g>
		<linearGradient id="SVGID_1_" gradientUnits="userSpaceOnUse" x1="225.6415" y1="351.1739" x2="370.065" y2="351.1739">
			<stop  offset="0" style="stop-color:#7379B8"/>
			<stop  offset="1" style="stop-color:#32B2CD"/>
		</linearGradient>
		<path class="st0" d="M366.7,271.8c-3.3-1.9-7.4-0.8-9.3,2.4l-78.3,133.5c-5.7,9.8-18.2,13.2-27.7,7.7l-15.2-9.9
			c-3.2-2.1-7.4-1.2-9.4,2c-2.1,3.2-1.1,7.4,2,9.4l15.5,10.1c5.4,3.1,11.2,4.6,17,4.6c11.8,0,23.3-6.1,29.6-17l78.2-133.4
			C371,277.8,369.9,273.7,366.7,271.8L366.7,271.8z M366.7,271.8"/>
		<linearGradient id="SVGID_2_" gradientUnits="userSpaceOnUse" x1="12.4807" y1="226.5589" x2="421.4807" y2="226.5589">
			<stop  offset="0" style="stop-color:#7379B8"/>
			<stop  offset="1" style="stop-color:#32B2CD"/>
		</linearGradient>
		<path class="st1" d="M387.3,22.1H278.1c-21.1,0-36.9,6.7-52.6,22.5c-2.7,2.7-2.7,7,0,9.7c2.7,2.7,7,2.7,9.7,0
			c13.3-13.3,25.3-18.5,43-18.5h109.2c11.3,0,20.5,9.2,20.5,20.5v109.2c0,17.6-5.2,29.7-18.5,43l-202.7,203c-7.7,7.7-21.2,7.7-29,0
			L32.1,285.9c-3.9-3.9-6-9-6-14.5c0-5.5,2.1-10.6,6-14.5L215.4,74c2.8,0.7,5.6,1.4,8.6,2.2c27.8,7.4,49.7,15.1,66,22
			c-3.2,6-5,12.6-5,19.5c0,22.6,18.4,41,41,41c22.6,0,41-18.4,41-41c0-22.6-18.4-41-41-41c-3.8,0-6.8,3.1-6.8,6.8
			c0,3.8,3.1,6.8,6.8,6.8c15.1,0,27.3,12.2,27.3,27.3c0,15.1-12.2,27.3-27.3,27.3c-15.1,0-27.3-12.2-27.3-27.3
			c0-4.9,1.3-9.7,3.8-13.9c11.8,5.7,19.2,10.4,22.1,13.5c-1.3,0.4-3.2,0.8-6.1,1c-3.8,0.3-6.5,3.6-6.2,7.4c0.3,3.6,3.3,6.2,6.8,6.2
			c0.2,0,0.4,0,0.6,0c4.2-0.4,17-1.5,19.4-10.7c6.7-25.1-91.8-52.9-111.6-58.2c-30.3-8.1-59.4-13.7-82-15.6
			c-27.7-2.4-41.2,0.7-43.8,10.2c-1.2,4.6-4.5,16.6,50.9,38.5c3.5,1.4,7.5-0.3,8.9-3.8c1.4-3.5-0.3-7.5-3.9-8.9
			c-26.7-10.5-37.8-18.3-41.4-21.9c8.4-2.5,37.2-1.8,83.6,8.8L22.5,247.3c-6.4,6.4-10,15-10,24.1c0,9.1,3.6,17.7,10,24.1L148,421.1
			c6.4,6.4,15,10,24.1,10c9.1,0,17.7-3.5,24.1-10L399,218c15.8-15.8,22.5-31.5,22.5-52.6V56.2C421.5,37.4,406.2,22.1,387.3,22.1
			L387.3,22.1z M387.3,22.1"/>
	</g>
	<linearGradient id="SVGID_3_" gradientUnits="userSpaceOnUse" x1="149.5584" y1="227.0598" x2="258.7844" y2="227.0598">
		<stop  offset="0" style="stop-color:#7379B8"/>
		<stop  offset="1" style="stop-color:#32B2CD"/>
	</linearGradient>
	<path class="st2" d="M256.8,174.4c-2.7-2.7-7-2.7-9.7,0l-3.7,3.7c-6-4-13.4-6.2-21.2-5.6c-18,1.3-32.1,16.7-31.7,34.8
		c0.2,9.8,4.3,17.6,7.9,23.3c3.4,5.5,5.8,13.3,5.8,16.9c0,11.6-9.6,20.9-21.3,20.5c-10.7-0.4-19.5-9.4-19.7-20.1
		c-0.1-4.3,1.2-8.4,3.6-11.9c2.1-3.1,1.3-7.4-1.8-9.5c-3.1-2.1-7.4-1.3-9.5,1.8c-3.9,5.7-6,12.4-6,19.3c0,6.9,2.1,13.4,5.7,18.8
		l-3.5,3.5c-2.3,2.3-2.8,6.3-0.9,8.9c1.4,1.9,3.5,2.9,5.6,2.9c1.7,0,3.5-0.7,4.8-2l3.7-3.7c5.4,3.6,11.8,5.7,18.8,5.7
		c18.8,0,34.1-15.3,34.1-34.1c0-6.6-3.3-16.8-7.9-24.1c-2.8-4.5-4.5-8.2-5.3-11.9c-2.7-12.3,5.9-24.6,18.5-25.4
		c6-0.4,11.6,1.8,15.5,5.6c0.1,0.1,0.2,0.3,0.3,0.4c0.1,0.1,0.3,0.2,0.4,0.3c3.5,3.7,5.7,8.6,5.7,14.1c0,5.5-2.1,10.6-6,14.5
		c-2.7,2.7-2.7,7,0,9.7c2.7,2.7,7,2.7,9.7,0c6.5-6.5,10-15,10-24.2c0-6.9-2.1-13.4-5.7-18.8l3.7-3.7
		C259.5,181.4,259.5,177.1,256.8,174.4L256.8,174.4z M256.8,174.4"/>
</g>
</svg>
