<?xml version="1.0" encoding="iso-8859-1"?>
<!-- Generator: Adobe Illustrator 22.0.1, SVG Export Plug-In . SVG Version: 6.00 Build 0)  -->
<svg version="1.1" id="Layer_1" xmlns="http://www.w3.org/2000/svg" xmlns:xlink="http://www.w3.org/1999/xlink" x="0px" y="0px"
	 viewBox="-49 141 512 512" style="enable-background:new -49 141 512 512;" xml:space="preserve">
<g>
	<linearGradient id="SVGID_1_" gradientUnits="userSpaceOnUse" x1="-11.3189" y1="397.0005" x2="425.3189" y2="397.0005">
		<stop  offset="0" style="stop-color:#7379B8"/>
		<stop  offset="1" style="stop-color:#32B2CD"/>
	</linearGradient>
	<path style="fill:url(#SVGID_1_);" d="M417.394,229.411c-70.445-19.302-141.304-49.357-204.917-86.915
		c-3.379-1.995-7.572-1.995-10.95,0C136.08,181.133,69.049,209.562-3.395,229.411c-4.68,1.281-7.924,5.535-7.924,10.388v110.046
		c0,113.323,52.279,188.335,96.137,231.306c47.216,46.265,102.216,71.85,122.185,71.85c19.967,0,74.967-25.585,122.183-71.85
		c43.857-42.97,96.133-117.983,96.133-231.306V239.798C425.319,234.946,422.075,230.692,417.394,229.411z M403.779,349.844
		c0,105.843-48.761,175.838-89.669,215.92c-46.431,45.495-96.074,65.695-107.107,65.695c-11.033,0-60.679-20.2-107.111-65.695
		c-40.907-40.083-89.67-110.077-89.67-215.92V247.974c69.278-19.67,133.796-47.121,196.784-83.724
		c61.414,35.632,129.151,64.448,196.774,83.72V349.844z"/>
	<linearGradient id="SVGID_2_" gradientUnits="userSpaceOnUse" x1="31.3273" y1="282.0084" x2="112.29" y2="282.0084">
		<stop  offset="0" style="stop-color:#7379B8"/>
		<stop  offset="1" style="stop-color:#32B2CD"/>
	</linearGradient>
	<path style="fill:url(#SVGID_2_);" d="M111.537,246.769c-2.18-5.535-8.433-8.254-13.969-6.073
		c-19.24,7.581-38.988,14.559-58.695,20.741c-4.491,1.41-7.547,5.57-7.547,10.276v41.591c0,5.948,4.823,10.77,10.77,10.77
		s10.77-4.822,10.77-10.77v-33.72c17.679-5.72,35.339-12.047,52.598-18.848C111,258.557,113.718,252.304,111.537,246.769z"/>
	<linearGradient id="SVGID_3_" gradientUnits="userSpaceOnUse" x1="121.2023" y1="238.0091" x2="142.9421" y2="238.0091">
		<stop  offset="0" style="stop-color:#7379B8"/>
		<stop  offset="1" style="stop-color:#32B2CD"/>
	</linearGradient>
	<path style="fill:url(#SVGID_3_);" d="M131.997,248.812c1.445,0,2.912-0.291,4.319-0.905l0.198-0.086
		c5.449-2.388,7.903-8.731,5.515-14.178c-2.39-5.449-8.769-7.914-14.212-5.528l-0.174,0.075c-5.452,2.381-7.914,8.719-5.533,14.169
		C123.876,246.405,127.842,248.812,131.997,248.812z"/>
	<linearGradient id="SVGID_4_" gradientUnits="userSpaceOnUse" x1="254.3301" y1="531.7089" x2="340.2021" y2="531.7089">
		<stop  offset="0" style="stop-color:#7379B8"/>
		<stop  offset="1" style="stop-color:#32B2CD"/>
	</linearGradient>
	<path style="fill:url(#SVGID_4_);" d="M335.321,488.283c-4.977-3.253-11.651-1.854-14.908,3.125
		c-8.875,13.584-19.287,26.592-30.951,38.659c-9.592,9.922-19.986,19.17-30.893,27.485c-4.729,3.606-5.639,10.364-2.034,15.095
		c2.121,2.779,5.328,4.241,8.572,4.241c2.278,0,4.573-0.719,6.523-2.207c11.765-8.971,22.975-18.944,33.317-29.642
		c12.611-13.044,23.882-27.124,33.499-41.849C341.701,498.21,340.3,491.536,335.321,488.283z"/>
	<linearGradient id="SVGID_5_" gradientUnits="userSpaceOnUse" x1="227.5628" y1="583.9329" x2="249.7721" y2="583.9329">
		<stop  offset="0" style="stop-color:#7379B8"/>
		<stop  offset="1" style="stop-color:#32B2CD"/>
	</linearGradient>
	<path style="fill:url(#SVGID_5_);" d="M233.557,574.443l-0.618,0.364c-5.147,2.981-6.906,9.569-3.926,14.716
		c1.997,3.45,5.612,5.376,9.331,5.376c1.83,0,3.688-0.467,5.385-1.452l0.713-0.419c5.133-3.006,6.857-9.603,3.851-14.736
		C245.286,573.161,238.687,571.44,233.557,574.443z"/>
	<linearGradient id="SVGID_6_" gradientUnits="userSpaceOnUse" x1="73.8207" y1="396.9979" x2="340.1858" y2="396.9979">
		<stop  offset="0" style="stop-color:#7379B8"/>
		<stop  offset="1" style="stop-color:#32B2CD"/>
	</linearGradient>
	<path style="fill:url(#SVGID_6_);" d="M133.589,375.019c-6.613-6.614-15.408-10.254-24.762-10.254s-18.15,3.641-24.766,10.254
		c-13.653,13.656-13.653,35.876,0,49.531l63.596,63.594c6.614,6.612,15.409,10.253,24.764,10.253c9.355,0,18.15-3.641,24.765-10.255
		L329.947,355.38c13.652-13.659,13.652-35.876-0.002-49.527c-6.614-6.614-15.409-10.254-24.765-10.254
		c-9.355,0-18.15,3.641-24.765,10.254L172.419,413.848L133.589,375.019z M295.647,321.085c2.545-2.545,5.932-3.946,9.534-3.946
		c3.604,0,6.988,1.401,9.535,3.946c5.255,5.255,5.255,13.809-0.002,19.066l-132.759,132.76c-2.545,2.545-5.932,3.946-9.534,3.946
		c-3.602,0-6.989-1.401-9.535-3.946l-63.594-63.592c-5.257-5.257-5.257-13.811-0.002-19.066c2.546-2.545,5.933-3.948,9.536-3.948
		c3.603,0,6.988,1.401,9.533,3.946l46.445,46.446c2.02,2.019,4.759,3.154,7.615,3.154c2.856,0,5.595-1.134,7.614-3.154
		L295.647,321.085z"/>
</g>
</svg>
