<?xml version="1.0" encoding="iso-8859-1"?>
<!-- Generator: Adobe Illustrator 22.0.1, SVG Export Plug-In . SVG Version: 6.00 Build 0)  -->
<svg version="1.1" id="&#x421;&#x43B;&#x43E;&#x439;_1"
	 xmlns="http://www.w3.org/2000/svg" xmlns:xlink="http://www.w3.org/1999/xlink" x="0px" y="0px" viewBox="0 0 50.5 47.5"
	 style="enable-background:new 0 0 50.5 47.5;" xml:space="preserve">
<path style="fill:#1A9F29;" d="M44,8.9c-0.5-0.7-1-1.4-1.5-2.1L14.8,22.7L1.4,15c-0.3,0.9-0.5,1.7-0.6,2.6l14.1,8.1L44,8.9z"/>
<path style="fill:#1A9F29;" d="M14.8,28.7L0.4,20.4c-0.1,0.5-0.1,1.1-0.1,1.6c0,13.1,10.6,23.8,23.8,23.8
	c13.1,0,23.8-10.6,23.8-23.8c0-3.9-0.9-7.6-2.6-10.8L14.8,28.7z"/>
<path style="fill:#1A9F29;" d="M40.6,4.8c-0.7-0.7-1.4-1.2-2.1-1.8L14.8,16.7L3.4,10.2c-0.4,0.7-0.8,1.5-1.2,2.3l12.5,7.2L40.6,4.8z
	"/>
<path style="fill:#1A9F29;" d="M36.1,1.4c-0.9-0.5-1.8-1-2.8-1.4L14.8,10.7L6.5,6C5.9,6.6,5.4,7.3,4.8,8l9.9,5.7L36.1,1.4z"/>
</svg>
