<?xml version="1.0" encoding="iso-8859-1"?>
<!-- Generator: Adobe Illustrator 22.0.1, SVG Export Plug-In . SVG Version: 6.00 Build 0)  -->
<svg version="1.1" id="Layer_1" xmlns="http://www.w3.org/2000/svg" xmlns:xlink="http://www.w3.org/1999/xlink" x="0px" y="0px"
	 viewBox="459.559 648.375 3.441 4.625" style="enable-background:new 459.559 648.375 3.441 4.625;" xml:space="preserve">
<linearGradient id="SVGID_1_" gradientUnits="userSpaceOnUse" x1="459.918" y1="650.6739" x2="462.6407" y2="650.6739">
	<stop  offset="1.027034e-07" style="stop-color:#747BDB"/>
	<stop  offset="1" style="stop-color:#34CCE7"/>
</linearGradient>
<path style="fill:url(#SVGID_1_);" d="M461.279,648.794c-0.751,0-1.361,0.611-1.361,1.361c0,0.932,1.218,2.299,1.27,2.357
	c0.049,0.054,0.134,0.054,0.182,0c0.052-0.058,1.27-1.425,1.27-2.357C462.641,649.405,462.03,648.794,461.279,648.794z
	 M461.279,650.841c-0.378,0-0.685-0.307-0.685-0.685s0.307-0.685,0.685-0.685c0.378,0,0.685,0.307,0.685,0.685
	S461.657,650.841,461.279,650.841z"/>
</svg>
