<?xml version="1.0" encoding="iso-8859-1"?>
<!-- Generator: Adobe Illustrator 22.0.1, SVG Export Plug-In . SVG Version: 6.00 Build 0)  -->
<svg version="1.1" id="Capa_1" xmlns="http://www.w3.org/2000/svg" xmlns:xlink="http://www.w3.org/1999/xlink" x="0px" y="0px"
	 viewBox="-54 237 507 320" style="enable-background:new -54 237 507 320;" xml:space="preserve">
<path style="fill:#FFB600;" d="M451,397c0,83.2-67.2,151.2-151.2,151.2c-83.2,0-151.2-68-151.2-151.2l0,0
	c0-83.2,67.2-151.2,150.4-151.2C383.8,245.8,451,313.8,451,397L451,397z"/>
<path style="fill:#F7981D;" d="M299.8,245.8c83.2,0,151.2,68,151.2,151.2l0,0c0,83.2-67.2,151.2-151.2,151.2
	c-83.2,0-151.2-68-151.2-151.2"/>
<path style="fill:#FF8500;" d="M299.8,245.8c83.2,0,151.2,68,151.2,151.2l0,0c0,83.2-67.2,151.2-151.2,151.2"/>
<path style="fill:#FF5050;" d="M96.6,245.8C14.2,246.6-53,313.8-53,397S14.2,548.2,98.2,548.2c39.2,0,74.4-15.2,101.6-39.2l0,0l0,0
	c5.6-4.8,10.4-10.4,15.2-16h-31.2c-4-4.8-8-10.4-11.2-15.2h53.6c3.2-4.8,6.4-10.4,8.8-16h-71.2c-2.4-4.8-4.8-10.4-6.4-16h83.2
	c4.8-15.2,8-31.2,8-48c0-11.2-1.6-21.6-3.2-32h-92.8c0.8-5.6,2.4-10.4,4-16h83.2c-1.6-5.6-4-11.2-6.4-16H163
	c2.4-5.6,5.6-10.4,8.8-16h53.6c-3.2-5.6-7.2-11.2-12-16h-29.6c4.8-5.6,9.6-10.4,15.2-15.2c-26.4-24.8-62.4-39.2-101.6-39.2
	C97.4,245.8,97.4,245.8,96.6,245.8z"/>
<path style="fill:#E52836;" d="M-53,397c0,83.2,67.2,151.2,151.2,151.2c39.2,0,74.4-15.2,101.6-39.2l0,0l0,0
	c5.6-4.8,10.4-10.4,15.2-16h-31.2c-4-4.8-8-10.4-11.2-15.2h53.6c3.2-4.8,6.4-10.4,8.8-16h-71.2c-2.4-4.8-4.8-10.4-6.4-16h83.2
	c4.8-15.2,8-31.2,8-48c0-11.2-1.6-21.6-3.2-32h-92.8c0.8-5.6,2.4-10.4,4-16h83.2c-1.6-5.6-4-11.2-6.4-16H163
	c2.4-5.6,5.6-10.4,8.8-16h53.6c-3.2-5.6-7.2-11.2-12-16h-29.6c4.8-5.6,9.6-10.4,15.2-15.2c-26.4-24.8-62.4-39.2-101.6-39.2h-0.8"/>
<path style="fill:#CB2026;" d="M98.2,548.2c39.2,0,74.4-15.2,101.6-39.2l0,0l0,0c5.6-4.8,10.4-10.4,15.2-16h-31.2
	c-4-4.8-8-10.4-11.2-15.2h53.6c3.2-4.8,6.4-10.4,8.8-16h-71.2c-2.4-4.8-4.8-10.4-6.4-16h83.2c4.8-15.2,8-31.2,8-48
	c0-11.2-1.6-21.6-3.2-32h-92.8c0.8-5.6,2.4-10.4,4-16h83.2c-1.6-5.6-4-11.2-6.4-16H163c2.4-5.6,5.6-10.4,8.8-16h53.6
	c-3.2-5.6-7.2-11.2-12-16h-29.6c4.8-5.6,9.6-10.4,15.2-15.2c-26.4-24.8-62.4-39.2-101.6-39.2h-0.8"/>
<g>
	<path style="fill:#FFFFFF;" d="M151.8,435.4l2.4-13.6c-0.8,0-2.4,0.8-4,0.8c-5.6,0-6.4-3.2-5.6-4.8l4.8-28h8.8l2.4-15.2h-8l1.6-9.6
		h-16c0,0-9.6,52.8-9.6,59.2c0,9.6,5.6,13.6,12.8,13.6C146.2,437.8,150.2,436.2,151.8,435.4z"/>
	<path style="fill:#FFFFFF;" d="M157.4,409.8c0,22.4,15.2,28,28,28c12,0,16.8-2.4,16.8-2.4l3.2-15.2c0,0-8.8,4-16.8,4
		c-17.6,0-14.4-12.8-14.4-12.8H207c0,0,2.4-10.4,2.4-14.4c0-10.4-5.6-23.2-23.2-23.2C169.4,372.2,157.4,389.8,157.4,409.8z
		 M185.4,386.6c8.8,0,7.2,10.4,7.2,11.2H175C175,397,176.6,386.6,185.4,386.6z"/>
	<path style="fill:#FFFFFF;" d="M287,435.4l3.2-17.6c0,0-8,4-13.6,4c-11.2,0-16-8.8-16-18.4c0-19.2,9.6-29.6,20.8-29.6
		c8,0,14.4,4.8,14.4,4.8l2.4-16.8c0,0-9.6-4-18.4-4c-18.4,0-36.8,16-36.8,46.4c0,20,9.6,33.6,28.8,33.6
		C278.2,437.8,287,435.4,287,435.4z"/>
	<path style="fill:#FFFFFF;" d="M63.8,372.2c-11.2,0-19.2,3.2-19.2,3.2L42.2,389c0,0,7.2-3.2,17.6-3.2c5.6,0,10.4,0.8,10.4,5.6
		c0,3.2-0.8,4-0.8,4s-4.8,0-7.2,0c-13.6,0-28.8,5.6-28.8,24c0,14.4,9.6,17.6,15.2,17.6c11.2,0,16-7.2,16.8-7.2l-0.8,6.4H79l6.4-44
		C85.4,373,69.4,372.2,63.8,372.2z M67,408.2c0,2.4-1.6,15.2-11.2,15.2c-4.8,0-6.4-4-6.4-6.4c0-4,2.4-9.6,14.4-9.6
		C66.2,408.2,67,408.2,67,408.2z"/>
	<path style="fill:#FFFFFF;" d="M100.6,437c4,0,24,0.8,24-20.8c0-20-19.2-16-19.2-24c0-4,3.2-5.6,8.8-5.6c2.4,0,11.2,0.8,11.2,0.8
		l2.4-14.4c0,0-5.6-1.6-15.2-1.6c-12,0-24,4.8-24,20.8c0,18.4,20,16.8,20,24c0,4.8-5.6,5.6-9.6,5.6c-7.2,0-14.4-2.4-14.4-2.4
		l-2.4,14.4C83,435.4,87,437,100.6,437z"/>
	<path style="fill:#FFFFFF;" d="M419.8,359.4l-3.2,21.6c0,0-6.4-8-15.2-8c-14.4,0-27.2,17.6-27.2,38.4c0,12.8,6.4,26.4,20,26.4
		c9.6,0,15.2-6.4,15.2-6.4l-0.8,5.6h16l12-76.8L419.8,359.4z M412.6,401.8c0,8.8-4,20-12.8,20c-5.6,0-8.8-4.8-8.8-12.8
		c0-12.8,5.6-20.8,12.8-20.8C409.4,388.2,412.6,392.2,412.6,401.8z"/>
	<path style="fill:#FFFFFF;" d="M-23.4,436.2l9.6-57.6l1.6,57.6H-1l20.8-57.6L11,436.2h16.8l12.8-76.8H14.2l-16,47.2l-0.8-47.2
		h-23.2l-12.8,76.8H-23.4z"/>
	<path style="fill:#FFFFFF;" d="M224.6,436.2c4.8-26.4,5.6-48,16.8-44c1.6-10.4,4-14.4,5.6-18.4c0,0-0.8,0-3.2,0
		c-7.2,0-12.8,9.6-12.8,9.6l1.6-8.8h-15.2L207,437h17.6V436.2z"/>
	<path style="fill:#FFFFFF;" d="M323.8,372.2c-11.2,0-19.2,3.2-19.2,3.2l-2.4,13.6c0,0,7.2-3.2,17.6-3.2c5.6,0,10.4,0.8,10.4,5.6
		c0,3.2-0.8,4-0.8,4s-4.8,0-7.2,0c-13.6,0-28.8,5.6-28.8,24c0,14.4,9.6,17.6,15.2,17.6c11.2,0,16-7.2,16.8-7.2l-0.8,6.4H339l6.4-44
		C346.2,373,329.4,372.2,323.8,372.2z M327.8,408.2c0,2.4-1.6,15.2-11.2,15.2c-4.8,0-6.4-4-6.4-6.4c0-4,2.4-9.6,14.4-9.6
		C327,408.2,327,408.2,327.8,408.2z"/>
	<path style="fill:#FFFFFF;" d="M359,436.2c4.8-26.4,5.6-48,16.8-44c1.6-10.4,4-14.4,5.6-18.4c0,0-0.8,0-3.2,0
		c-7.2,0-12.8,9.6-12.8,9.6l1.6-8.8h-15.2L341.4,437H359V436.2z"/>
</g>
<g>
	<path style="fill:#DCE5E5;" d="M127,424.2c0,9.6,5.6,13.6,12.8,13.6c5.6,0,10.4-1.6,12-2.4l2.4-13.6c-0.8,0-2.4,0.8-4,0.8
		c-5.6,0-6.4-3.2-5.6-4.8l4.8-28h8.8l2.4-15.2h-8l1.6-9.6"/>
	<path style="fill:#DCE5E5;" d="M165.4,409.8c0,22.4,7.2,28,20,28c12,0,16.8-2.4,16.8-2.4l3.2-15.2c0,0-8.8,4-16.8,4
		c-17.6,0-14.4-12.8-14.4-12.8H207c0,0,2.4-10.4,2.4-14.4c0-10.4-5.6-23.2-23.2-23.2C169.4,372.2,165.4,389.8,165.4,409.8z
		 M185.4,386.6c8.8,0,10.4,10.4,10.4,11.2H175C175,397,176.6,386.6,185.4,386.6z"/>
	<path style="fill:#DCE5E5;" d="M287,435.4l3.2-17.6c0,0-8,4-13.6,4c-11.2,0-16-8.8-16-18.4c0-19.2,9.6-29.6,20.8-29.6
		c8,0,14.4,4.8,14.4,4.8l2.4-16.8c0,0-9.6-4-18.4-4c-18.4,0-28.8,16-28.8,46.4c0,20,1.6,33.6,20.8,33.6
		C278.2,437.8,287,435.4,287,435.4z"/>
	<path style="fill:#DCE5E5;" d="M42.2,389.8c0,0,7.2-3.2,17.6-3.2c5.6,0,10.4,0.8,10.4,5.6c0,3.2-0.8,4-0.8,4s-4.8,0-7.2,0
		c-13.6,0-28.8,5.6-28.8,24c0,14.4,9.6,17.6,15.2,17.6c11.2,0,16-7.2,16.8-7.2l-0.8,6.4H79l6.4-44c0-18.4-16-19.2-22.4-19.2
		 M75,408.2c0,2.4-9.6,15.2-19.2,15.2c-4.8,0-6.4-4-6.4-6.4c0-4,2.4-9.6,14.4-9.6C66.2,408.2,75,408.2,75,408.2z"/>
	<path style="fill:#DCE5E5;" d="M83,435.4c0,0,4.8,1.6,18.4,1.6c4,0,24,0.8,24-20.8c0-20-19.2-16-19.2-24c0-4,3.2-5.6,8.8-5.6
		c2.4,0,11.2,0.8,11.2,0.8l2.4-14.4c0,0-5.6-1.6-15.2-1.6c-12,0-16,4.8-16,20.8c0,18.4,12,16.8,12,24c0,4.8-5.6,5.6-9.6,5.6"/>
	<path style="fill:#DCE5E5;" d="M416.6,381c0,0-6.4-8-15.2-8c-14.4,0-19.2,17.6-19.2,38.4c0,12.8-1.6,26.4,12,26.4
		c9.6,0,15.2-6.4,15.2-6.4l-0.8,5.6h16l12-76.8 M415.8,401.8c0,8.8-7.2,20-16,20c-5.6,0-8.8-4.8-8.8-12.8c0-12.8,5.6-20.8,12.8-20.8
		C409.4,388.2,415.8,392.2,415.8,401.8z"/>
	<path style="fill:#DCE5E5;" d="M-23.4,436.2l9.6-57.6l1.6,57.6H-1l20.8-57.6L11,436.2h16.8l12.8-76.8h-20l-22.4,47.2l-0.8-47.2
		h-8.8l-27.2,76.8H-23.4z"/>
	<path style="fill:#DCE5E5;" d="M207.8,436.2h16.8c4.8-26.4,5.6-48,16.8-44c1.6-10.4,4-14.4,5.6-18.4c0,0-0.8,0-3.2,0
		c-7.2,0-12.8,9.6-12.8,9.6l1.6-8.8"/>
	<path style="fill:#DCE5E5;" d="M302.2,389.8c0,0,7.2-3.2,17.6-3.2c5.6,0,10.4,0.8,10.4,5.6c0,3.2-0.8,4-0.8,4s-4.8,0-7.2,0
		c-13.6,0-28.8,5.6-28.8,24c0,14.4,9.6,17.6,15.2,17.6c11.2,0,16-7.2,16.8-7.2l-0.8,6.4H339l6.4-44c0-18.4-16-19.2-22.4-19.2
		 M335,408.2c0,2.4-9.6,15.2-19.2,15.2c-4.8,0-6.4-4-6.4-6.4c0-4,2.4-9.6,14.4-9.6C327,408.2,335,408.2,335,408.2z"/>
	<path style="fill:#DCE5E5;" d="M342.2,436.2H359c4.8-26.4,5.6-48,16.8-44c1.6-10.4,4-14.4,5.6-18.4c0,0-0.8,0-3.2,0
		c-7.2,0-12.8,9.6-12.8,9.6l1.6-8.8"/>
</g>
</svg>
