<?xml version="1.0" encoding="iso-8859-1"?>
<!-- Generator: Adobe Illustrator 22.0.1, SVG Export Plug-In . SVG Version: 6.00 Build 0)  -->
<svg version="1.1" id="Capa_1" xmlns="http://www.w3.org/2000/svg" xmlns:xlink="http://www.w3.org/1999/xlink" x="0px" y="0px"
	 viewBox="0 0 11 11" style="enable-background:new 0 0 11 11;" xml:space="preserve">
<path style="fill:#CCCCCC;" d="M10.535,4.338c-0.022-0.066-0.079-0.114-0.148-0.124l-3.306-0.48L5.602,0.737
	C5.572,0.675,5.508,0.635,5.439,0.635c-0.069,0-0.133,0.039-0.164,0.102L3.796,3.733L0.49,4.214
	c-0.069,0.01-0.126,0.058-0.148,0.124C0.321,4.404,0.339,4.477,0.388,4.526l2.393,2.332l-0.565,3.293
	c-0.012,0.069,0.016,0.138,0.073,0.179c0.056,0.041,0.131,0.047,0.192,0.014l2.958-1.555l2.957,1.555
	c0.027,0.014,0.056,0.021,0.085,0.021c0.038,0,0.075-0.012,0.107-0.035c0.056-0.041,0.084-0.11,0.073-0.179L8.096,6.858l2.393-2.332
	C10.539,4.477,10.556,4.404,10.535,4.338z"/>
</svg>
