<?xml version="1.0" encoding="iso-8859-1"?>
<!-- Generator: Adobe Illustrator 22.0.1, SVG Export Plug-In . SVG Version: 6.00 Build 0)  -->
<svg version="1.1" id="Layer_1" xmlns="http://www.w3.org/2000/svg" xmlns:xlink="http://www.w3.org/1999/xlink" x="0px" y="0px"
	 viewBox="0 0 190.756 63.756" style="enable-background:new 0 0 190.756 63.756;" xml:space="preserve">
<g>
	<g>
		<polygon style="fill:#0C3387;" points="70.04,59.168 78.937,6.965 93.165,6.965 84.263,59.168 		"/>
		<path style="fill:#0C3387;" d="M135.87,8.25c-2.819-1.058-7.236-2.192-12.753-2.192c-14.06,0-23.964,7.08-24.048,17.228
			c-0.079,7.501,7.07,11.685,12.468,14.183c5.538,2.559,7.4,4.19,7.374,6.476c-0.035,3.499-4.423,5.098-8.513,5.098
			c-5.695,0-8.721-0.791-13.394-2.74l-1.833-0.83l-1.997,11.687c3.324,1.457,9.469,2.72,15.85,2.785
			c14.957,0,24.667-6.999,24.777-17.835c0.054-5.938-3.737-10.458-11.946-14.184c-4.974-2.415-8.02-4.026-7.987-6.472
			c0-2.17,2.578-4.49,8.148-4.49c4.653-0.072,8.023,0.942,10.649,2l1.275,0.603L135.87,8.25"/>
		<path style="fill:#0C3387;" d="M172.357,7.015h-10.995c-3.406,0-5.955,0.93-7.451,4.329l-21.132,47.841h14.941
			c0,0,2.443-6.433,2.996-7.845c1.633,0,16.148,0.022,18.223,0.022c0.426,1.827,1.731,7.822,1.731,7.822h13.203L172.357,7.015
			 M154.811,40.662c1.177-3.008,5.669-14.593,5.669-14.593c-0.084,0.139,1.168-3.022,1.887-4.982l0.962,4.501
			c0,0,2.725,12.461,3.294,15.074H154.811z"/>
		<path style="fill:#0C3387;" d="M58.106,7.003L44.175,42.602l-1.484-7.234c-2.593-8.34-10.673-17.375-19.706-21.898l12.738,45.654
			l15.055-0.018L73.178,7.003H58.106"/>
		<path style="fill:#FF9900;" d="M31.252,6.971H8.308L8.126,8.057c17.851,4.321,29.662,14.764,34.565,27.311l-4.989-23.989
			C36.84,8.072,34.342,7.086,31.252,6.971"/>
	</g>
</g>
</svg>
