<svg xmlns="http://www.w3.org/2000/svg" viewBox="-49 141 512 512">
    <linearGradient id="a" gradientUnits="userSpaceOnUse" x1="66.2" y1="396.863" x2="347.8" y2="396.863">
        <stop offset="0" stop-color="#747bdb"/>
        <stop offset="1" stop-color="#35cde8"/>
    </linearGradient>
    <path d="M339.8 532.36h-46.96v-30.72a8 8 0 0 0-8-8h-40L218.92 386.2l45.68 24a8 8 0 0 0 11.6-8.4l-10.96-64 46.56-45.36a8 8 0 0 0-4.4-13.68l-64-9.36-29.2-58.32a8 8 0 0 0-14.32 0L171.08 269l-64 9.36a8 8 0 0 0-4.4 13.68l46.56 45.36-10.96 64a8 8 0 0 0 11.6 8.4l45.68-24-26.24 107.84h-40a8 8 0 0 0-8 8v30.72H74.2a8 8 0 0 0-8 8v38.72a8 8 0 0 0 8 8h265.6a8 8 0 0 0 8-8v-38.72a8 8 0 0 0-8-8zm-183.44-144l8.96-52.24a8.001 8.001 0 0 0-2.32-7.04l-37.92-36.88 52.48-8a8 8 0 0 0 6-4.4L207 232.68l23.44 47.52a8 8 0 0 0 6 4.4l52.48 8L251 329.16a8.001 8.001 0 0 0-2.32 7.04l8.96 52.24-46.88-24.64H209.4a7.205 7.205 0 0 0-4.72 0H203.32l-46.96 24.56zM207 405l21.04 88h-42.08L207 405zm-69.84 104h139.68v22.72H137.16V509zm194.64 62.08H82.2v-22.72h249.6v22.72z" fill="url(#a)"/>
</svg>
