<svg xmlns="http://www.w3.org/2000/svg" viewBox="-49 141 512 512">
    <linearGradient id="a" gradientUnits="userSpaceOnUse" x1="-6.333" y1="397" x2="420.333" y2="397">
        <stop offset="0" stop-color="#747bdb"/>
        <stop offset="1" stop-color="#35cde8"/>
    </linearGradient>
    <path transform="translate(1 1)" d="M265.733 225.333H146.267c-9.387 0-17.067-7.68-17.067-17.067v-51.2c0-9.387 7.68-17.067 17.067-17.067h119.467c9.387 0 17.067 7.68 17.067 17.067v51.2c-.001 9.387-7.681 17.067-17.068 17.067zm0-17.066v8.533-8.533zm-119.466-51.2v51.2h119.467v-51.2H146.267zM393.733 652H18.267c-14.507 0-25.6-11.093-25.6-25.6V182.667c0-14.507 11.093-25.6 25.6-25.6H129.2c0-9.387 7.68-17.067 17.067-17.067h119.467c9.387 0 17.067 7.68 17.067 17.067h110.933c14.507 0 25.6 11.093 25.6 25.6V626.4c-.001 14.507-11.094 25.6-25.601 25.6zM18.267 174.133c-5.12 0-8.533 3.413-8.533 8.533V626.4c0 5.12 3.413 8.533 8.533 8.533h375.467c5.12 0 8.533-3.413 8.533-8.533V182.667c0-5.12-3.413-8.533-8.533-8.533H274.267c-5.12 0-8.533-3.413-8.533-8.533v-8.533H146.267v8.533c0 5.12-3.413 8.533-8.533 8.533H18.267zm349.866 443.734H43.867c-9.387 0-17.067-7.68-17.067-17.067V208.267c0-9.387 7.68-17.067 17.067-17.067h93.867c5.12 0 8.533 3.413 8.533 8.533v8.533h119.467v-8.533c0-5.12 3.413-8.533 8.533-8.533h93.867c9.387 0 17.067 7.68 17.067 17.067V600.8c-.001 9.387-7.681 17.067-17.068 17.067zm-324.266-409.6V600.8h324.267V208.267H282.8c0 9.387-7.68 17.067-17.067 17.067H146.267c-9.387 0-17.067-7.68-17.067-17.067H43.867zm252.586 340.48c4.267-2.56 5.12-7.68 2.56-11.947l-17.067-25.6c-2.56-4.267-7.68-5.12-11.947-2.56-4.267 2.56-5.12 7.68-2.56 11.947l17.067 25.6c1.707 1.707 4.267 3.413 6.827 3.413 1.707 0 3.414-.853 5.12-.853zm1.707-2.56l42.667-59.733c3.413-4.267 1.707-9.387-1.707-11.947-4.267-3.413-9.387-1.707-11.947 1.707l-42.667 59.733c-3.413 4.267-1.707 9.387 1.707 11.947 1.707.853 3.413 1.707 5.12 1.707 2.56-.001 5.12-.854 6.827-3.414zm1.707-210.774H112.133c-3.413 0-5.973-1.707-7.68-4.267s-.853-5.973.853-8.533l36.693-51.2c5.12-7.68 13.653-11.947 23.04-11.947h81.92c9.387 0 17.92 4.267 23.04 11.947l36.693 51.2c1.707 2.56 1.707 5.973.853 8.533-1.705 2.561-4.265 4.267-7.678 4.267zm-171.52-17.066H282.8l-27.307-38.4c-1.707-2.56-5.12-4.267-9.387-4.267h-81.92c-3.413 0-6.827 1.707-9.387 4.267l-26.452 38.4zm9.386 103.253c-18.773 0-34.133-15.36-34.133-34.133s15.36-34.133 34.133-34.133 34.133 15.36 34.133 34.133-15.359 34.133-34.133 34.133zm0-51.2c-9.387 0-17.067 7.68-17.067 17.067s7.68 17.067 17.067 17.067 17.067-7.68 17.067-17.067-7.68-17.067-17.067-17.067zm136.534 51.2c-18.773 0-34.133-15.36-34.133-34.133s15.36-34.133 34.133-34.133 34.133 15.36 34.133 34.133-15.36 34.133-34.133 34.133zm0-51.2c-9.387 0-17.067 7.68-17.067 17.067s7.68 17.067 17.067 17.067 17.067-7.68 17.067-17.067c-.001-9.387-7.681-17.067-17.067-17.067zm46.08 25.6h-20.48c-5.12 0-8.533-3.413-8.533-8.533 0-9.387-7.68-17.067-17.067-17.067s-17.067 7.68-17.067 17.067c0 5.12-3.413 8.533-8.533 8.533h-85.333c-5.12 0-8.533-3.413-8.533-8.533 0-9.387-7.68-17.067-17.067-17.067s-17.067 7.68-17.067 17.067c0 5.12-3.413 8.533-8.533 8.533h-20.48c-12.8 0-22.187-9.387-22.187-22.187v-33.28c0-11.947 9.387-22.187 22.187-22.187H321.2c11.947 0 22.187 9.387 22.187 22.187v33.28c-.854 12.8-10.24 22.187-23.04 22.187zm-12.8-17.067H321.2c2.56 0 5.12-2.56 5.12-5.12v-33.28c0-2.56-2.56-5.12-5.12-5.12H91.653c-2.56 0-5.12 2.56-5.12 5.12v33.28c0 2.56 2.56 5.12 5.12 5.12h13.653c3.413-14.507 17.067-25.6 33.28-25.6s29.013 11.093 33.28 25.6h70.827c3.413-14.507 17.067-25.6 33.28-25.6s27.307 11.094 31.574 25.6zM214.533 472.8c0-5.12-3.413-8.533-8.533-8.533H78c-5.12 0-8.533 3.413-8.533 8.533s3.413 8.533 8.533 8.533h128c5.12 0 8.533-3.413 8.533-8.533zm0 42.667c0-5.12-3.413-8.533-8.533-8.533H78c-5.12 0-8.533 3.413-8.533 8.533 0 5.12 3.413 8.533 8.533 8.533h128c5.12 0 8.533-3.413 8.533-8.533zm0 42.666c0-5.12-3.413-8.533-8.533-8.533H78c-5.12 0-8.533 3.413-8.533 8.533s3.413 8.533 8.533 8.533h128c5.12.001 8.533-3.413 8.533-8.533zm0-230.4V268c0-5.12-3.413-8.533-8.533-8.533-5.12 0-8.533 3.413-8.533 8.533v59.733c0 5.12 3.413 6.827 8.533 6.827 5.12 0 8.533-1.707 8.533-6.827z" fill="url(#a)"/>
</svg>
