<svg xmlns="http://www.w3.org/2000/svg" viewBox="0 0 512 512">
    <linearGradient id="a" gradientUnits="userSpaceOnUse" y1="256" x2="512" y2="256">
        <stop offset="0" stop-color="#747bdb"/>
        <stop offset="1" stop-color="#35cde8"/>
    </linearGradient>
    <path d="M488.468 232.468c-10.353 0-19.16 6.724-22.3 16.032H399.58c-3.786-73.321-62.759-132.293-136.08-136.08V45.832c9.308-3.139 16.032-11.946 16.032-22.3C279.532 10.557 268.976 0 256 0s-23.532 10.557-23.532 23.532c0 10.354 6.724 19.16 16.032 22.3v66.588c-73.321 3.786-132.293 62.759-136.08 136.08H45.832c-3.139-9.308-11.946-16.032-22.3-16.032C10.557 232.468 0 243.024 0 256s10.557 23.532 23.532 23.532c10.354 0 19.16-6.724 22.3-16.032h66.588c3.786 73.321 62.759 132.293 136.08 136.08v66.588c-9.308 3.139-16.032 11.946-16.032 22.3C232.468 501.443 243.024 512 256 512s23.532-10.557 23.532-23.532c0-10.354-6.724-19.16-16.032-22.3V399.58c73.321-3.786 132.293-62.759 136.08-136.08h66.588c3.139 9.308 11.946 16.032 22.3 16.032C501.443 279.532 512 268.976 512 256s-10.557-23.532-23.532-23.532zM256 15c4.705 0 8.532 3.828 8.532 8.532s-3.828 8.532-8.532 8.532-8.532-3.828-8.532-8.532S251.295 15 256 15zM23.532 264.532c-4.705 0-8.532-3.828-8.532-8.532s3.828-8.532 8.532-8.532 8.532 3.828 8.532 8.532c0 4.704-3.827 8.532-8.532 8.532zM256 497c-4.705 0-8.532-3.828-8.532-8.532s3.828-8.532 8.532-8.532c4.704 0 8.532 3.828 8.532 8.532S260.705 497 256 497zm0-112.226c-71.006 0-128.774-57.768-128.774-128.774S184.994 127.226 256 127.226 384.774 184.994 384.774 256 327.006 384.774 256 384.774zm232.468-120.242c-4.705 0-8.532-3.828-8.532-8.532s3.828-8.532 8.532-8.532S497 251.295 497 256s-3.828 8.532-8.532 8.532zm-175.632 9.031l-24.963-9.985a.513.513 0 0 1-.325-.479v-15.114c0-.065-.008-.129-.01-.193a39.353 39.353 0 0 0 8.026-23.855v-24.048c0-17.396-17.749-31.548-39.564-31.548s-39.564 14.152-39.564 31.548v24.048a39.353 39.353 0 0 0 8.026 23.855c-.002.065-.01.128-.01.193v15.114c0 .212-.127.4-.325.479l-24.963 9.985c-8.986 3.594-14.793 12.171-14.793 21.849v24.717c0 8.556 6.96 15.516 15.516 15.516h64.127a7.5 7.5 0 0 0 0-15h-64.127a.516.516 0 0 1-.516-.516v-24.717a8.49 8.49 0 0 1 5.364-7.922l24.964-9.985a15.442 15.442 0 0 0 9.753-14.406v-3.239A39.325 39.325 0 0 0 256 263.501c5.906 0 11.51-1.31 16.548-3.641v3.239a15.441 15.441 0 0 0 9.753 14.406l24.964 9.986a8.49 8.49 0 0 1 5.363 7.921v24.717a.516.516 0 0 1-.516.516h-16.034a7.5 7.5 0 0 0 0 15h16.034c8.556 0 15.516-6.96 15.516-15.516v-24.717c.001-9.679-5.806-18.255-14.792-21.849zm-81.4-49.627v-24.048c0-8.97 11.249-16.548 24.564-16.548s24.564 7.578 24.564 16.548v24.048c0 13.545-11.02 24.564-24.564 24.564s-24.564-11.02-24.564-24.564zm-148.004-1.422c6.653-34.465 23.35-65.862 48.285-90.797 24.935-24.936 56.333-41.632 90.797-48.285a7.5 7.5 0 0 1 2.843 14.729c-31.512 6.083-60.224 21.354-83.033 44.163s-38.08 51.521-44.163 83.033a7.502 7.502 0 0 1-8.786 5.943 7.502 7.502 0 0 1-5.943-8.786zM280.7 89.375c.786-4.067 4.719-6.723 8.786-5.943 34.464 6.653 65.862 23.349 90.797 48.285 24.935 24.935 41.632 56.332 48.285 90.797a7.5 7.5 0 0 1-14.729 2.843c-6.083-31.512-21.354-60.224-44.163-83.033s-51.521-38.08-83.033-44.163a7.502 7.502 0 0 1-5.943-8.786zm-49.4 333.25a7.502 7.502 0 0 1-8.786 5.943c-34.464-6.653-65.861-23.35-90.797-48.285-24.935-24.936-41.632-56.333-48.285-90.797a7.5 7.5 0 0 1 14.729-2.843c6.083 31.512 21.354 60.224 44.163 83.033s51.521 38.08 83.033 44.163a7.502 7.502 0 0 1 5.943 8.786zm197.268-133.139c-6.653 34.464-23.35 65.861-48.285 90.797-24.936 24.935-56.333 41.632-90.797 48.285a7.502 7.502 0 0 1-8.786-5.943 7.5 7.5 0 0 1 5.943-8.786c31.512-6.083 60.224-21.354 83.033-44.163s38.08-51.521 44.163-83.033c.786-4.068 4.719-6.722 8.786-5.943a7.502 7.502 0 0 1 5.943 8.786z" fill="url(#a)"/>
</svg>
