<svg xmlns="http://www.w3.org/2000/svg" viewBox="-49 141 512 512">
    <linearGradient id="a" gradientUnits="userSpaceOnUse" x1="-49.001" y1="397" x2="463" y2="397">
        <stop offset="0" stop-color="#747bdb"/>
        <stop offset="1" stop-color="#35cde8"/>
    </linearGradient>
    <path d="M439.52 322.794h-50.367c0-.002 0 .002 0 0l-25.461-99.848c-3.199-12.546-16.01-20.147-28.553-16.95l-58.049 14.802a7.317 7.317 0 0 0 3.615 14.179l58.049-14.802c4.731-1.203 9.554 1.66 10.76 6.387l2.82 11.061-383.605 97.816-2.82-11.06a8.792 8.792 0 0 1 .965-6.703 8.795 8.795 0 0 1 5.423-4.057l263.859-67.283a7.317 7.317 0 0 0-3.615-14.179l-263.86 67.283c-12.546 3.199-20.15 16.008-16.951 28.553L5.838 540.185c2.705 10.607 12.278 17.682 22.755 17.681 1.914 0 3.86-.237 5.798-.731l3.464-.883v9.003c0 12.947 10.533 23.48 23.48 23.48H439.52c12.947 0 23.48-10.533 23.48-23.48V346.274c0-12.947-10.533-23.48-23.48-23.48zM37.856 541.152l-7.079 1.805c-4.727 1.206-9.554-1.66-10.76-6.387l-33.12-129.884 50.959-12.994v147.46zm0-194.879v32.319l-54.574 13.916-10.937-42.892 70.687-18.025a23.367 23.367 0 0 0-5.176 14.682zm332.646-37.404l3.551 13.924h-58.157l54.606-13.924zm-14.552-57.07l10.937 42.892-110.207 28.103H77.535l278.415-70.995zm92.418 313.456c0 4.879-3.969 8.848-8.848 8.848H61.336c-4.879 0-8.849-3.969-8.849-8.848V346.274c0-4.879 3.969-8.848 8.849-8.848H439.52c4.879 0 8.848 3.969 8.848 8.848v218.981z" fill="url(#a)"/>
    <linearGradient id="b" gradientUnits="userSpaceOnUse" x1="75.618" y1="510.211" x2="249.658" y2="510.211">
        <stop offset="0" stop-color="#747bdb"/>
        <stop offset="1" stop-color="#35cde8"/>
    </linearGradient>
    <path d="M82.934 517.527h159.408a7.316 7.316 0 0 0 0-14.632H82.934a7.316 7.316 0 0 0 0 14.632z" fill="url(#b)"/>
    <linearGradient id="c" gradientUnits="userSpaceOnUse" x1="259.746" y1="422.413" x2="412.419" y2="422.413">
        <stop offset="0" stop-color="#747bdb"/>
        <stop offset="1" stop-color="#35cde8"/>
    </linearGradient>
    <path d="M307.911 470.576a47.892 47.892 0 0 0 28.187-9.125c7.926 5.733 17.651 9.125 28.158 9.125 26.557 0 48.163-21.606 48.163-48.163 0-26.558-21.606-48.164-48.163-48.164-10.508 0-20.232 3.392-28.158 9.125a47.895 47.895 0 0 0-28.188-9.125c-26.558 0-48.164 21.606-48.164 48.164.002 26.557 21.608 48.163 48.165 48.163zm30.479-69.478l.003-.004c.302-.366.615-.722.932-1.075.073-.081.145-.162.219-.242a32.275 32.275 0 0 1 1.195-1.236c6.057-5.968 14.364-9.66 23.519-9.66 18.489 0 33.531 15.042 33.531 33.532 0 18.489-15.042 33.531-33.531 33.531-9.155 0-17.461-3.691-23.518-9.659a33.69 33.69 0 0 1-1.196-1.237l-.221-.245a33.831 33.831 0 0 1-.929-1.073l-.005-.006a33.38 33.38 0 0 1-7.663-21.313c-.001-8.086 2.878-15.514 7.664-21.313zm-30.479-12.217a33.346 33.346 0 0 1 17.559 4.967c-5.09 6.865-8.212 14.902-9.104 23.458l-.042.425c-.058.609-.104 1.22-.14 1.833-.011.188-.024.374-.033.562-.035.759-.058 1.52-.058 2.285s.023 1.526.058 2.285c.009.188.022.375.033.563.035.613.082 1.224.14 1.833l.042.426c.892 8.556 4.013 16.593 9.104 23.458a33.346 33.346 0 0 1-17.559 4.967c-18.49 0-33.532-15.042-33.532-33.531.001-18.488 15.043-33.531 33.532-33.531z" fill="url(#c)"/>
    <linearGradient id="d" gradientUnits="userSpaceOnUse" x1="75.619" y1="422.413" x2="162.433" y2="422.413">
        <stop offset="0" stop-color="#747bdb"/>
        <stop offset="1" stop-color="#35cde8"/>
    </linearGradient>
    <path d="M102.983 465.82h32.086c15.088 0 27.364-12.275 27.364-27.364V406.37c0-15.088-12.275-27.364-27.364-27.364h-32.086c-15.089 0-27.364 12.275-27.364 27.364v32.086c-.001 15.089 12.275 27.364 27.364 27.364zM90.25 420.003h15.607a7.316 7.316 0 0 0 0-14.632H90.3c.512-6.554 5.998-11.734 12.682-11.734h32.086c6.684 0 12.169 5.18 12.682 11.734h-15.557a7.316 7.316 0 0 0 0 14.632H147.8v6.34h-15.607a7.316 7.316 0 0 0 0 14.632h15.355c-1.173 5.818-6.322 10.214-12.48 10.214h-32.086c-6.159 0-11.308-4.395-12.48-10.214h15.355a7.316 7.316 0 0 0 0-14.632H90.25v-6.34z" fill="url(#d)"/>
    <linearGradient id="e" gradientUnits="userSpaceOnUse" x1="152.07" y1="542.401" x2="421.435" y2="542.401">
        <stop offset="0" stop-color="#747bdb"/>
        <stop offset="1" stop-color="#35cde8"/>
    </linearGradient>
    <path d="M414.119 535.085H159.386a7.316 7.316 0 0 0 0 14.632h254.733a7.316 7.316 0 0 0 0-14.632z" fill="url(#e)"/>
    <linearGradient id="f" gradientUnits="userSpaceOnUse" x1="75.619" y1="542.401" x2="120.064" y2="542.401">
        <stop offset="0" stop-color="#747bdb"/>
        <stop offset="1" stop-color="#35cde8"/>
    </linearGradient>
    <path d="M112.748 535.085H82.935a7.316 7.316 0 0 0 0 14.632h29.813a7.316 7.316 0 0 0 0-14.632z" fill="url(#f)"/>
</svg>
