<svg id="Слой_1" xmlns="http://www.w3.org/2000/svg" viewBox="0 0 430.5 439.5">
    <style>
        .st0{fill:url(#SVGID_1_)}.st1{fill:url(#SVGID_2_)}.st2{fill:url(#SVGID_3_)}
    </style>
    <linearGradient id="SVGID_1_" gradientUnits="userSpaceOnUse" x1="225.642" y1="351.174" x2="370.065" y2="351.174">
        <stop offset="0" stop-color="#7379b8"/>
        <stop offset="1" stop-color="#32b2cd"/>
    </linearGradient>
    <path class="st0" d="M366.7 271.8c-3.3-1.9-7.4-.8-9.3 2.4l-78.3 133.5c-5.7 9.8-18.2 13.2-27.7 7.7l-15.2-9.9c-3.2-2.1-7.4-1.2-9.4 2-2.1 3.2-1.1 7.4 2 9.4l15.5 10.1c5.4 3.1 11.2 4.6 17 4.6 11.8 0 23.3-6.1 29.6-17l78.2-133.4c1.9-3.4.8-7.5-2.4-9.4zm0 0"/>
    <linearGradient id="SVGID_2_" gradientUnits="userSpaceOnUse" x1="12.481" y1="226.559" x2="421.481" y2="226.559">
        <stop offset="0" stop-color="#7379b8"/>
        <stop offset="1" stop-color="#32b2cd"/>
    </linearGradient>
    <path class="st1" d="M387.3 22.1H278.1c-21.1 0-36.9 6.7-52.6 22.5-2.7 2.7-2.7 7 0 9.7 2.7 2.7 7 2.7 9.7 0 13.3-13.3 25.3-18.5 43-18.5h109.2c11.3 0 20.5 9.2 20.5 20.5v109.2c0 17.6-5.2 29.7-18.5 43l-202.7 203c-7.7 7.7-21.2 7.7-29 0L32.1 285.9c-3.9-3.9-6-9-6-14.5s2.1-10.6 6-14.5L215.4 74c2.8.7 5.6 1.4 8.6 2.2 27.8 7.4 49.7 15.1 66 22-3.2 6-5 12.6-5 19.5 0 22.6 18.4 41 41 41s41-18.4 41-41-18.4-41-41-41c-3.8 0-6.8 3.1-6.8 6.8 0 3.8 3.1 6.8 6.8 6.8 15.1 0 27.3 12.2 27.3 27.3 0 15.1-12.2 27.3-27.3 27.3-15.1 0-27.3-12.2-27.3-27.3 0-4.9 1.3-9.7 3.8-13.9 11.8 5.7 19.2 10.4 22.1 13.5-1.3.4-3.2.8-6.1 1-3.8.3-6.5 3.6-6.2 7.4.3 3.6 3.3 6.2 6.8 6.2h.6c4.2-.4 17-1.5 19.4-10.7 6.7-25.1-91.8-52.9-111.6-58.2-30.3-8.1-59.4-13.7-82-15.6-27.7-2.4-41.2.7-43.8 10.2-1.2 4.6-4.5 16.6 50.9 38.5 3.5 1.4 7.5-.3 8.9-3.8 1.4-3.5-.3-7.5-3.9-8.9-26.7-10.5-37.8-18.3-41.4-21.9 8.4-2.5 37.2-1.8 83.6 8.8L22.5 247.3c-6.4 6.4-10 15-10 24.1 0 9.1 3.6 17.7 10 24.1L148 421.1c6.4 6.4 15 10 24.1 10 9.1 0 17.7-3.5 24.1-10L399 218c15.8-15.8 22.5-31.5 22.5-52.6V56.2c0-18.8-15.3-34.1-34.2-34.1zm0 0"/>
    <linearGradient id="SVGID_3_" gradientUnits="userSpaceOnUse" x1="149.558" y1="227.06" x2="258.784" y2="227.06">
        <stop offset="0" stop-color="#7379b8"/>
        <stop offset="1" stop-color="#32b2cd"/>
    </linearGradient>
    <path class="st2" d="M256.8 174.4c-2.7-2.7-7-2.7-9.7 0l-3.7 3.7c-6-4-13.4-6.2-21.2-5.6-18 1.3-32.1 16.7-31.7 34.8.2 9.8 4.3 17.6 7.9 23.3 3.4 5.5 5.8 13.3 5.8 16.9 0 11.6-9.6 20.9-21.3 20.5-10.7-.4-19.5-9.4-19.7-20.1-.1-4.3 1.2-8.4 3.6-11.9 2.1-3.1 1.3-7.4-1.8-9.5-3.1-2.1-7.4-1.3-9.5 1.8-3.9 5.7-6 12.4-6 19.3s2.1 13.4 5.7 18.8l-3.5 3.5c-2.3 2.3-2.8 6.3-.9 8.9 1.4 1.9 3.5 2.9 5.6 2.9 1.7 0 3.5-.7 4.8-2l3.7-3.7c5.4 3.6 11.8 5.7 18.8 5.7 18.8 0 34.1-15.3 34.1-34.1 0-6.6-3.3-16.8-7.9-24.1-2.8-4.5-4.5-8.2-5.3-11.9-2.7-12.3 5.9-24.6 18.5-25.4 6-.4 11.6 1.8 15.5 5.6.1.1.2.3.3.4.1.1.3.2.4.3 3.5 3.7 5.7 8.6 5.7 14.1s-2.1 10.6-6 14.5c-2.7 2.7-2.7 7 0 9.7 2.7 2.7 7 2.7 9.7 0 6.5-6.5 10-15 10-24.2 0-6.9-2.1-13.4-5.7-18.8l3.7-3.7c2.8-2.7 2.8-7 .1-9.7zm0 0"/>
</svg>
