<svg xmlns="http://www.w3.org/2000/svg" viewBox="-40 206 494 371">
    <circle cx="278.992" cy="508.96" r="8"/>
    <path d="M266.064 341.496a8.065 8.065 0 0 0-10.616 4.912 8.072 8.072 0 0 0 2.608 8.8c.235.189.481.366.736.528.412.252.842.471 1.288.656a8.214 8.214 0 0 0 3 .608 8.286 8.286 0 0 0 1.72-.184 8.062 8.062 0 0 0 4.704-3.04c.244-.317.46-.655.648-1.008l.112-.216a8.088 8.088 0 0 0-2.176-9.88 8.259 8.259 0 0 0-2.024-1.176z"/>
    <path d="M28.08 429.472a8.08 8.08 0 0 0-4.64 10.016c.121.356.265.703.432 1.04a8.08 8.08 0 0 0 7.2 4.448A8.072 8.072 0 0 0 39 435.608a8.363 8.363 0 0 0-.736-2.264 8.097 8.097 0 0 0-10.184-3.872z"/>
    <linearGradient id="a" gradientUnits="userSpaceOnUse" x1="-33" y1="384.985" x2="447" y2="384.985">
        <stop offset="0" stop-color="#7379b8"/>
        <stop offset="1" stop-color="#32b2cd"/>
    </linearGradient>
    <path d="M439 317a8 8 0 0 0 0-16h-64a8 8 0 0 0-8 8v88h-56v-32c.013-31.863-23.197-58.982-54.68-63.888A8.11 8.11 0 0 0 255 301h-20.656l-85.656-85.656A8.002 8.002 0 0 0 135 221v96a8 8 0 0 0 8 8c13.224-.024 23.964 10.676 23.988 23.9.023 12.606-9.732 23.071-22.308 23.932a22.337 22.337 0 0 0-18.264-8.2l-22.176-60.936a8 8 0 0 0-10.232-4.8l-68.912 24.856-36.408-36.408A8.001 8.001 0 0 0-17 285h-8a8 8 0 0 0 0 16h4.72l37.68 37.656a7.999 7.999 0 0 0 8.368 1.864l66.224-23.864 19.16 52.648-15.04 5.48a8 8 0 0 0-4.801 10.244l.001.004 8.184 22.496-25.296 9c-10.41-22.477-36.329-33.2-59.576-24.648-24.888 9.095-37.721 36.617-28.688 61.528 9.143 24.883 36.726 37.644 61.609 28.501 20.607-7.572 33.451-28.159 31.191-49.997l33.736-12h.064l25.048-9.12a21.736 21.736 0 0 0 13.272-22.592c21.658-4.356 35.683-25.445 31.327-47.102A39.998 39.998 0 0 0 151 309.8v-69.488l72 72V397h-40a8 8 0 0 0-8 8v64.848A23.64 23.64 0 0 0 159 493c-.679 12.497 8.838 23.206 21.328 24h51.392a47.825 47.825 0 0 0 11.6 24H-25a8 8 0 0 0 0 16h464a8 8 0 0 0 0-16H314.712a47.825 47.825 0 0 0 11.6-24H439a8 8 0 0 0 0-16H326.312c-4.392-26.112-29.12-43.72-55.232-39.328-20.151 3.389-35.939 19.177-39.328 39.328H215v-24a8 8 0 0 0-8-8h-16v-56h248a8 8 0 0 0 0-16h-56v-80h56zM41.992 467.064c-16.609 6.003-34.945-2.547-41.024-19.128-6.043-16.608 2.521-34.97 19.129-41.013s34.97 2.521 41.013 19.129c6.043 16.607-2.52 34.968-19.126 41.012h.008zm90.096-71.336l-17.536 6.4-5.472-15.048 15.024-5.48 2.496-.912c2.4-.856 6.144 1.264 7.752 5.696s.112 8.472-2.264 9.344zM279 477c17.673 0 32 14.327 32 32 0 17.673-14.327 32-32 32s-32-14.327-32-32c0-17.673 14.327-32 32-32zm-80 24h-18.64c-2.52 0-5.328-3.288-5.328-8s2.808-8 5.328-8H199v16zm40-184h15.336c23.496 3.855 40.723 24.19 40.664 48v32h-56v-80z" fill="url(#a)"/>
</svg>
