<svg xmlns="http://www.w3.org/2000/svg" viewBox="-49 141 512 512">
    <linearGradient id="a" gradientUnits="userSpaceOnUse" x1="-11.319" y1="397" x2="425.319" y2="397">
        <stop offset="0" stop-color="#7379b8"/>
        <stop offset="1" stop-color="#32b2cd"/>
    </linearGradient>
    <path d="M417.394 229.411c-70.445-19.302-141.304-49.357-204.917-86.915a10.765 10.765 0 0 0-10.95 0C136.08 181.133 69.049 209.562-3.395 229.411a10.769 10.769 0 0 0-7.924 10.388v110.046c0 113.323 52.279 188.335 96.137 231.306 47.216 46.265 102.216 71.85 122.185 71.85 19.967 0 74.967-25.585 122.183-71.85 43.857-42.97 96.133-117.983 96.133-231.306V239.798c0-4.852-3.244-9.106-7.925-10.387zm-13.615 120.433c0 105.843-48.761 175.838-89.669 215.92-46.431 45.495-96.074 65.695-107.107 65.695-11.033 0-60.679-20.2-107.111-65.695-40.907-40.083-89.67-110.077-89.67-215.92v-101.87c69.278-19.67 133.796-47.121 196.784-83.724 61.414 35.632 129.151 64.448 196.774 83.72v101.874z" fill="url(#a)"/>
    <linearGradient id="b" gradientUnits="userSpaceOnUse" x1="31.327" y1="282.008" x2="112.29" y2="282.008">
        <stop offset="0" stop-color="#7379b8"/>
        <stop offset="1" stop-color="#32b2cd"/>
    </linearGradient>
    <path d="M111.537 246.769c-2.18-5.535-8.433-8.254-13.969-6.073a876.25 876.25 0 0 1-58.695 20.741 10.771 10.771 0 0 0-7.547 10.276v41.591c0 5.948 4.823 10.77 10.77 10.77s10.77-4.822 10.77-10.77v-33.72a897.813 897.813 0 0 0 52.598-18.848c5.536-2.179 8.254-8.432 6.073-13.967z" fill="url(#b)"/>
    <linearGradient id="c" gradientUnits="userSpaceOnUse" x1="121.202" y1="238.009" x2="142.942" y2="238.009">
        <stop offset="0" stop-color="#7379b8"/>
        <stop offset="1" stop-color="#32b2cd"/>
    </linearGradient>
    <path d="M131.997 248.812c1.445 0 2.912-.291 4.319-.905l.198-.086c5.449-2.388 7.903-8.731 5.515-14.178-2.39-5.449-8.769-7.914-14.212-5.528l-.174.075c-5.452 2.381-7.914 8.719-5.533 14.169 1.766 4.046 5.732 6.453 9.887 6.453z" fill="url(#c)"/>
    <linearGradient id="d" gradientUnits="userSpaceOnUse" x1="254.33" y1="531.709" x2="340.202" y2="531.709">
        <stop offset="0" stop-color="#7379b8"/>
        <stop offset="1" stop-color="#32b2cd"/>
    </linearGradient>
    <path d="M335.321 488.283c-4.977-3.253-11.651-1.854-14.908 3.125-8.875 13.584-19.287 26.592-30.951 38.659a275.097 275.097 0 0 1-30.893 27.485c-4.729 3.606-5.639 10.364-2.034 15.095a10.758 10.758 0 0 0 8.572 4.241c2.278 0 4.573-.719 6.523-2.207a296.864 296.864 0 0 0 33.317-29.642c12.611-13.044 23.882-27.124 33.499-41.849 3.255-4.98 1.854-11.654-3.125-14.907z" fill="url(#d)"/>
    <linearGradient id="e" gradientUnits="userSpaceOnUse" x1="227.563" y1="583.933" x2="249.772" y2="583.933">
        <stop offset="0" stop-color="#7379b8"/>
        <stop offset="1" stop-color="#32b2cd"/>
    </linearGradient>
    <path d="M233.557 574.443l-.618.364c-5.147 2.981-6.906 9.569-3.926 14.716a10.763 10.763 0 0 0 14.716 3.924l.713-.419c5.133-3.006 6.857-9.603 3.851-14.736-3.007-5.131-9.606-6.852-14.736-3.849z" fill="url(#e)"/>
    <linearGradient id="f" gradientUnits="userSpaceOnUse" x1="73.821" y1="396.998" x2="340.186" y2="396.998">
        <stop offset="0" stop-color="#7379b8"/>
        <stop offset="1" stop-color="#32b2cd"/>
    </linearGradient>
    <path d="M133.589 375.019c-6.613-6.614-15.408-10.254-24.762-10.254s-18.15 3.641-24.766 10.254c-13.653 13.656-13.653 35.876 0 49.531l63.596 63.594c6.614 6.612 15.409 10.253 24.764 10.253 9.355 0 18.15-3.641 24.765-10.255L329.947 355.38c13.652-13.659 13.652-35.876-.002-49.527-6.614-6.614-15.409-10.254-24.765-10.254-9.355 0-18.15 3.641-24.765 10.254L172.419 413.848l-38.83-38.829zm162.058-53.934a13.395 13.395 0 0 1 9.534-3.946c3.604 0 6.988 1.401 9.535 3.946 5.255 5.255 5.255 13.809-.002 19.066l-132.759 132.76a13.395 13.395 0 0 1-9.534 3.946 13.399 13.399 0 0 1-9.535-3.946l-63.594-63.592c-5.257-5.257-5.257-13.811-.002-19.066a13.401 13.401 0 0 1 9.536-3.948 13.39 13.39 0 0 1 9.533 3.946l46.445 46.446a10.773 10.773 0 0 0 15.229 0l115.614-115.612z" fill="url(#f)"/>
</svg>
