<svg xmlns="http://www.w3.org/2000/svg" viewBox="0 0 50.5 47.5">
    <path d="M44 8.9l-1.5-2.1-27.7 15.9L1.4 15c-.3.9-.5 1.7-.6 2.6l14.1 8.1L44 8.9z" fill="#1a9f29"/>
    <path d="M14.8 28.7L.4 20.4c-.1.5-.1 1.1-.1 1.6 0 13.1 10.6 23.8 23.8 23.8 13.1 0 23.8-10.6 23.8-23.8 0-3.9-.9-7.6-2.6-10.8L14.8 28.7z" fill="#1a9f29"/>
    <path d="M40.6 4.8c-.7-.7-1.4-1.2-2.1-1.8L14.8 16.7 3.4 10.2c-.4.7-.8 1.5-1.2 2.3l12.5 7.2L40.6 4.8z" fill="#1a9f29"/>
    <path d="M36.1 1.4c-.9-.5-1.8-1-2.8-1.4L14.8 10.7 6.5 6c-.6.6-1.1 1.3-1.7 2l9.9 5.7L36.1 1.4z" fill="#1a9f29"/>
</svg>
