<?xml version="1.0" encoding="utf-8"?>
<!-- Generator: Adobe Illustrator 22.0.1, SVG Export Plug-In . SVG Version: 6.00 Build 0)  -->
<svg version="1.1" id="Слой_1" xmlns="http://www.w3.org/2000/svg" xmlns:xlink="http://www.w3.org/1999/xlink" x="0px" y="0px"
	 viewBox="0 0 30 30" style="enable-background:new 0 0 30 30;" xml:space="preserve">
<style type="text/css">
	.st0{fill:#7379B8;}
</style>
<g>
	<path class="st0" d="M15,29.8C6.8,29.8,0.2,23.2,0.2,15S6.8,0.2,15,0.2c8.2,0,14.8,6.7,14.8,14.8S23.2,29.8,15,29.8L15,29.8z
		 M15,1.3C7.5,1.3,1.3,7.5,1.3,15c0,7.5,6.1,13.7,13.7,13.7c7.5,0,13.7-6.1,13.7-13.7C28.7,7.5,22.5,1.3,15,1.3L15,1.3z M15,1.3"/>
	<path class="st0" d="M14,19l-5.1-5.1L9.6,13l4.3,4.3l7.8-7.8l0.8,0.8L14,19z M14,19"/>
</g>
</svg>
