<?xml version="1.0" encoding="UTF-8"?><!DOCTYPE svg PUBLIC "-//W3C//DTD SVG 1.1//EN" "http://www.w3.org/Graphics/SVG/1.1/DTD/svg11.dtd"><svg xmlns="http://www.w3.org/2000/svg"><symbol id="icon-1-award" viewBox="-49 141 512 512">
    <linearGradient id="a" gradientUnits="userSpaceOnUse" x1="66.2" y1="396.863" x2="347.8" y2="396.863">
        <stop offset="0" stop-color="#747bdb"/>
        <stop offset="1" stop-color="#35cde8"/>
    </linearGradient>
    <path d="M339.8 532.36h-46.96v-30.72a8 8 0 0 0-8-8h-40L218.92 386.2l45.68 24a8 8 0 0 0 11.6-8.4l-10.96-64 46.56-45.36a8 8 0 0 0-4.4-13.68l-64-9.36-29.2-58.32a8 8 0 0 0-14.32 0L171.08 269l-64 9.36a8 8 0 0 0-4.4 13.68l46.56 45.36-10.96 64a8 8 0 0 0 11.6 8.4l45.68-24-26.24 107.84h-40a8 8 0 0 0-8 8v30.72H74.2a8 8 0 0 0-8 8v38.72a8 8 0 0 0 8 8h265.6a8 8 0 0 0 8-8v-38.72a8 8 0 0 0-8-8zm-183.44-144l8.96-52.24a8.001 8.001 0 0 0-2.32-7.04l-37.92-36.88 52.48-8a8 8 0 0 0 6-4.4L207 232.68l23.44 47.52a8 8 0 0 0 6 4.4l52.48 8L251 329.16a8.001 8.001 0 0 0-2.32 7.04l8.96 52.24-46.88-24.64H209.4a7.205 7.205 0 0 0-4.72 0H203.32l-46.96 24.56zM207 405l21.04 88h-42.08L207 405zm-69.84 104h139.68v22.72H137.16V509zm194.64 62.08H82.2v-22.72h249.6v22.72z"/>
</symbol><symbol id="icon-2-cash-money" viewBox="-49 141 512 512">
    <path d="M175 261c-39.696 0-72 32.304-72 72s32.304 72 72 72 72-32.304 72-72-32.304-72-72-72zm0 128c-30.88 0-56-25.12-56-56s25.12-56 56-56 56 25.12 56 56-25.12 56-56 56z"/>
    <path d="M359 269h-8c-8.824 0-16-7.176-16-16 0-4.416-3.576-8-8-8h-80v16h73.016c3.552 13.784 16.104 24 30.984 24v96c-14.88 0-27.432 10.216-30.984 24H247v16h80c4.424 0 8-3.584 8-8 0-8.824 7.176-16 16-16h8c4.424 0 8-3.584 8-8V277c0-4.416-3.576-8-8-8z"/>
    <path d="M-1 381v-96c14.88 0 27.424-10.216 30.992-24H103v-16H23c-4.416 0-8 3.584-8 8 0 8.824-7.176 16-16 16h-8c-4.416 0-8 3.584-8 8v112c0 4.416 3.584 8 8 8h8c8.824 0 16 7.176 16 16 0 4.416 3.584 8 8 8h80v-16H29.992C26.424 391.216 13.88 381-1 381z"/>
    <path d="M271 309h16v56h-16z"/>
    <path d="M303 309h16v56h-16z"/>
    <path d="M31 309h16v56H31z"/>
    <path d="M63 309h16v56H63z"/>
    <path d="M167 461c0 39.696 32.304 72 72 72 39.704 0 72-32.304 72-72 0-2.68-.208-5.344-.504-8H391c4.424 0 8-3.584 8-8V221c0-4.416-3.576-8-8-8H-41c-4.416 0-8 3.584-8 8v224c0 4.416 3.584 8 8 8h208.504c-.296 2.656-.504 5.32-.504 8zm128 0c0 30.88-25.128 56-56 56-30.88 0-56-25.12-56-56 0-2.688.24-5.352.616-8h110.76c.384 2.648.624 5.312.624 8zM-33 229h416v208H-33V229z"/>
    <path d="M455 341h-40v16h32v208H31v-96H15v104c0 4.416 3.584 8 8 8h432c4.424 0 8-3.584 8-8V349c0-4.416-3.576-8-8-8z"/>
    <path d="M384.016 533H311v16h80c4.424 0 8-3.584 8-8 0-8.824 7.176-16 16-16h8c4.424 0 8-3.584 8-8V405c0-4.416-3.576-8-8-8h-8v112c-14.88 0-27.432 10.216-30.984 24z"/>
    <path d="M47 469v48c0 4.416 3.584 8 8 8h8c8.824 0 16 7.176 16 16 0 4.416 3.584 8 8 8h80v-16H93.992c-3.56-13.784-16.104-24-30.992-24v-40H47z"/>
</symbol><symbol id="icon-3-car-repair" viewBox="-49 141 512 512">
    <linearGradient id="a" gradientUnits="userSpaceOnUse" x1="-6.333" y1="397" x2="420.333" y2="397">
        <stop offset="0" stop-color="#747bdb"/>
        <stop offset="1" stop-color="#35cde8"/>
    </linearGradient>
    <path transform="translate(1 1)" d="M265.733 225.333H146.267c-9.387 0-17.067-7.68-17.067-17.067v-51.2c0-9.387 7.68-17.067 17.067-17.067h119.467c9.387 0 17.067 7.68 17.067 17.067v51.2c-.001 9.387-7.681 17.067-17.068 17.067zm0-17.066v8.533-8.533zm-119.466-51.2v51.2h119.467v-51.2H146.267zM393.733 652H18.267c-14.507 0-25.6-11.093-25.6-25.6V182.667c0-14.507 11.093-25.6 25.6-25.6H129.2c0-9.387 7.68-17.067 17.067-17.067h119.467c9.387 0 17.067 7.68 17.067 17.067h110.933c14.507 0 25.6 11.093 25.6 25.6V626.4c-.001 14.507-11.094 25.6-25.601 25.6zM18.267 174.133c-5.12 0-8.533 3.413-8.533 8.533V626.4c0 5.12 3.413 8.533 8.533 8.533h375.467c5.12 0 8.533-3.413 8.533-8.533V182.667c0-5.12-3.413-8.533-8.533-8.533H274.267c-5.12 0-8.533-3.413-8.533-8.533v-8.533H146.267v8.533c0 5.12-3.413 8.533-8.533 8.533H18.267zm349.866 443.734H43.867c-9.387 0-17.067-7.68-17.067-17.067V208.267c0-9.387 7.68-17.067 17.067-17.067h93.867c5.12 0 8.533 3.413 8.533 8.533v8.533h119.467v-8.533c0-5.12 3.413-8.533 8.533-8.533h93.867c9.387 0 17.067 7.68 17.067 17.067V600.8c-.001 9.387-7.681 17.067-17.068 17.067zm-324.266-409.6V600.8h324.267V208.267H282.8c0 9.387-7.68 17.067-17.067 17.067H146.267c-9.387 0-17.067-7.68-17.067-17.067H43.867zm252.586 340.48c4.267-2.56 5.12-7.68 2.56-11.947l-17.067-25.6c-2.56-4.267-7.68-5.12-11.947-2.56-4.267 2.56-5.12 7.68-2.56 11.947l17.067 25.6c1.707 1.707 4.267 3.413 6.827 3.413 1.707 0 3.414-.853 5.12-.853zm1.707-2.56l42.667-59.733c3.413-4.267 1.707-9.387-1.707-11.947-4.267-3.413-9.387-1.707-11.947 1.707l-42.667 59.733c-3.413 4.267-1.707 9.387 1.707 11.947 1.707.853 3.413 1.707 5.12 1.707 2.56-.001 5.12-.854 6.827-3.414zm1.707-210.774H112.133c-3.413 0-5.973-1.707-7.68-4.267s-.853-5.973.853-8.533l36.693-51.2c5.12-7.68 13.653-11.947 23.04-11.947h81.92c9.387 0 17.92 4.267 23.04 11.947l36.693 51.2c1.707 2.56 1.707 5.973.853 8.533-1.705 2.561-4.265 4.267-7.678 4.267zm-171.52-17.066H282.8l-27.307-38.4c-1.707-2.56-5.12-4.267-9.387-4.267h-81.92c-3.413 0-6.827 1.707-9.387 4.267l-26.452 38.4zm9.386 103.253c-18.773 0-34.133-15.36-34.133-34.133s15.36-34.133 34.133-34.133 34.133 15.36 34.133 34.133-15.359 34.133-34.133 34.133zm0-51.2c-9.387 0-17.067 7.68-17.067 17.067s7.68 17.067 17.067 17.067 17.067-7.68 17.067-17.067-7.68-17.067-17.067-17.067zm136.534 51.2c-18.773 0-34.133-15.36-34.133-34.133s15.36-34.133 34.133-34.133 34.133 15.36 34.133 34.133-15.36 34.133-34.133 34.133zm0-51.2c-9.387 0-17.067 7.68-17.067 17.067s7.68 17.067 17.067 17.067 17.067-7.68 17.067-17.067c-.001-9.387-7.681-17.067-17.067-17.067zm46.08 25.6h-20.48c-5.12 0-8.533-3.413-8.533-8.533 0-9.387-7.68-17.067-17.067-17.067s-17.067 7.68-17.067 17.067c0 5.12-3.413 8.533-8.533 8.533h-85.333c-5.12 0-8.533-3.413-8.533-8.533 0-9.387-7.68-17.067-17.067-17.067s-17.067 7.68-17.067 17.067c0 5.12-3.413 8.533-8.533 8.533h-20.48c-12.8 0-22.187-9.387-22.187-22.187v-33.28c0-11.947 9.387-22.187 22.187-22.187H321.2c11.947 0 22.187 9.387 22.187 22.187v33.28c-.854 12.8-10.24 22.187-23.04 22.187zm-12.8-17.067H321.2c2.56 0 5.12-2.56 5.12-5.12v-33.28c0-2.56-2.56-5.12-5.12-5.12H91.653c-2.56 0-5.12 2.56-5.12 5.12v33.28c0 2.56 2.56 5.12 5.12 5.12h13.653c3.413-14.507 17.067-25.6 33.28-25.6s29.013 11.093 33.28 25.6h70.827c3.413-14.507 17.067-25.6 33.28-25.6s27.307 11.094 31.574 25.6zM214.533 472.8c0-5.12-3.413-8.533-8.533-8.533H78c-5.12 0-8.533 3.413-8.533 8.533s3.413 8.533 8.533 8.533h128c5.12 0 8.533-3.413 8.533-8.533zm0 42.667c0-5.12-3.413-8.533-8.533-8.533H78c-5.12 0-8.533 3.413-8.533 8.533 0 5.12 3.413 8.533 8.533 8.533h128c5.12 0 8.533-3.413 8.533-8.533zm0 42.666c0-5.12-3.413-8.533-8.533-8.533H78c-5.12 0-8.533 3.413-8.533 8.533s3.413 8.533 8.533 8.533h128c5.12.001 8.533-3.413 8.533-8.533zm0-230.4V268c0-5.12-3.413-8.533-8.533-8.533-5.12 0-8.533 3.413-8.533 8.533v59.733c0 5.12 3.413 6.827 8.533 6.827 5.12 0 8.533-1.707 8.533-6.827z"/>
</symbol><symbol id="icon-4-person" viewBox="0 0 512 512">
    <linearGradient id="a" gradientUnits="userSpaceOnUse" y1="256" x2="512" y2="256">
        <stop offset="0" stop-color="#747bdb"/>
        <stop offset="1" stop-color="#35cde8"/>
    </linearGradient>
    <path d="M488.468 232.468c-10.353 0-19.16 6.724-22.3 16.032H399.58c-3.786-73.321-62.759-132.293-136.08-136.08V45.832c9.308-3.139 16.032-11.946 16.032-22.3C279.532 10.557 268.976 0 256 0s-23.532 10.557-23.532 23.532c0 10.354 6.724 19.16 16.032 22.3v66.588c-73.321 3.786-132.293 62.759-136.08 136.08H45.832c-3.139-9.308-11.946-16.032-22.3-16.032C10.557 232.468 0 243.024 0 256s10.557 23.532 23.532 23.532c10.354 0 19.16-6.724 22.3-16.032h66.588c3.786 73.321 62.759 132.293 136.08 136.08v66.588c-9.308 3.139-16.032 11.946-16.032 22.3C232.468 501.443 243.024 512 256 512s23.532-10.557 23.532-23.532c0-10.354-6.724-19.16-16.032-22.3V399.58c73.321-3.786 132.293-62.759 136.08-136.08h66.588c3.139 9.308 11.946 16.032 22.3 16.032C501.443 279.532 512 268.976 512 256s-10.557-23.532-23.532-23.532zM256 15c4.705 0 8.532 3.828 8.532 8.532s-3.828 8.532-8.532 8.532-8.532-3.828-8.532-8.532S251.295 15 256 15zM23.532 264.532c-4.705 0-8.532-3.828-8.532-8.532s3.828-8.532 8.532-8.532 8.532 3.828 8.532 8.532c0 4.704-3.827 8.532-8.532 8.532zM256 497c-4.705 0-8.532-3.828-8.532-8.532s3.828-8.532 8.532-8.532c4.704 0 8.532 3.828 8.532 8.532S260.705 497 256 497zm0-112.226c-71.006 0-128.774-57.768-128.774-128.774S184.994 127.226 256 127.226 384.774 184.994 384.774 256 327.006 384.774 256 384.774zm232.468-120.242c-4.705 0-8.532-3.828-8.532-8.532s3.828-8.532 8.532-8.532S497 251.295 497 256s-3.828 8.532-8.532 8.532zm-175.632 9.031l-24.963-9.985a.513.513 0 0 1-.325-.479v-15.114c0-.065-.008-.129-.01-.193a39.353 39.353 0 0 0 8.026-23.855v-24.048c0-17.396-17.749-31.548-39.564-31.548s-39.564 14.152-39.564 31.548v24.048a39.353 39.353 0 0 0 8.026 23.855c-.002.065-.01.128-.01.193v15.114c0 .212-.127.4-.325.479l-24.963 9.985c-8.986 3.594-14.793 12.171-14.793 21.849v24.717c0 8.556 6.96 15.516 15.516 15.516h64.127a7.5 7.5 0 0 0 0-15h-64.127a.516.516 0 0 1-.516-.516v-24.717a8.49 8.49 0 0 1 5.364-7.922l24.964-9.985a15.442 15.442 0 0 0 9.753-14.406v-3.239A39.325 39.325 0 0 0 256 263.501c5.906 0 11.51-1.31 16.548-3.641v3.239a15.441 15.441 0 0 0 9.753 14.406l24.964 9.986a8.49 8.49 0 0 1 5.363 7.921v24.717a.516.516 0 0 1-.516.516h-16.034a7.5 7.5 0 0 0 0 15h16.034c8.556 0 15.516-6.96 15.516-15.516v-24.717c.001-9.679-5.806-18.255-14.792-21.849zm-81.4-49.627v-24.048c0-8.97 11.249-16.548 24.564-16.548s24.564 7.578 24.564 16.548v24.048c0 13.545-11.02 24.564-24.564 24.564s-24.564-11.02-24.564-24.564zm-148.004-1.422c6.653-34.465 23.35-65.862 48.285-90.797 24.935-24.936 56.333-41.632 90.797-48.285a7.5 7.5 0 0 1 2.843 14.729c-31.512 6.083-60.224 21.354-83.033 44.163s-38.08 51.521-44.163 83.033a7.502 7.502 0 0 1-8.786 5.943 7.502 7.502 0 0 1-5.943-8.786zM280.7 89.375c.786-4.067 4.719-6.723 8.786-5.943 34.464 6.653 65.862 23.349 90.797 48.285 24.935 24.935 41.632 56.332 48.285 90.797a7.5 7.5 0 0 1-14.729 2.843c-6.083-31.512-21.354-60.224-44.163-83.033s-51.521-38.08-83.033-44.163a7.502 7.502 0 0 1-5.943-8.786zm-49.4 333.25a7.502 7.502 0 0 1-8.786 5.943c-34.464-6.653-65.861-23.35-90.797-48.285-24.935-24.936-41.632-56.333-48.285-90.797a7.5 7.5 0 0 1 14.729-2.843c6.083 31.512 21.354 60.224 44.163 83.033s51.521 38.08 83.033 44.163a7.502 7.502 0 0 1 5.943 8.786zm197.268-133.139c-6.653 34.464-23.35 65.861-48.285 90.797-24.936 24.935-56.333 41.632-90.797 48.285a7.502 7.502 0 0 1-8.786-5.943 7.5 7.5 0 0 1 5.943-8.786c31.512-6.083 60.224-21.354 83.033-44.163s38.08-51.521 44.163-83.033c.786-4.068 4.719-6.722 8.786-5.943a7.502 7.502 0 0 1 5.943 8.786z"/>
</symbol><symbol id="icon-viber" viewBox="0 0 512 512">
    <path d="M444 49.9C431.3 38.2 379.9.9 265.3.4c0 0-135.1-8.1-200.9 52.3C27.8 89.3 14.9 143 13.5 209.5c-1.4 66.5-3.1 191.1 117 224.9h.1l-.1 51.6s-.8 20.9 13 25.1c16.6 5.2 26.4-10.7 42.3-27.8 8.7-9.4 20.7-23.2 29.8-33.7 82.2 6.9 145.3-8.9 152.5-11.2 16.6-5.4 110.5-17.4 125.7-142 15.8-128.6-7.6-209.8-49.8-246.5zM457.9 287c-12.9 104-89 110.6-103 115.1-6 1.9-61.5 15.7-131.2 11.2 0 0-52 62.7-68.2 79-5.3 5.3-11.1 4.8-11-5.7 0-6.9.4-85.7.4-85.7-.1 0-.1 0 0 0-101.8-28.2-95.8-134.3-94.7-189.8 1.1-55.5 11.6-101 42.6-131.6 55.7-50.5 170.4-43 170.4-43 96.9.4 143.3 29.6 154.1 39.4 35.7 30.6 53.9 103.8 40.6 211.1zm-139-80.8c.4 8.6-12.5 9.2-12.9.6-1.1-22-11.4-32.7-32.6-33.9-8.6-.5-7.8-13.4.7-12.9 27.9 1.5 43.4 17.5 44.8 46.2zm20.3 11.3c1-42.4-25.5-75.6-75.8-79.3-8.5-.6-7.6-13.5.9-12.9 58 4.2 88.9 44.1 87.8 92.5-.1 8.6-13.1 8.2-12.9-.3zm47 13.4c.1 8.6-12.9 8.7-12.9.1-.6-81.5-54.9-125.9-120.8-126.4-8.5-.1-8.5-12.9 0-12.9 73.7.5 133 51.4 133.7 139.2zM374.9 329v.2c-10.8 19-31 40-51.8 33.3l-.2-.3c-21.1-5.9-70.8-31.5-102.2-56.5-16.2-12.8-31-27.9-42.4-42.4-10.3-12.9-20.7-28.2-30.8-46.6-21.3-38.5-26-55.7-26-55.7-6.7-20.8 14.2-41 33.3-51.8h.2c9.2-4.8 18-3.2 23.9 3.9 0 0 12.4 14.8 17.7 22.1 5 6.8 11.7 17.7 15.2 23.8 6.1 10.9 2.3 22-3.7 26.6l-12 9.6c-6.1 4.9-5.3 14-5.3 14s17.8 67.3 84.3 84.3c0 0 9.1.8 14-5.3l9.6-12c4.6-6 15.7-9.8 26.6-3.7 14.7 8.3 33.4 21.2 45.8 32.9 7 5.7 8.6 14.4 3.8 23.6z"/>
</symbol><symbol id="icon-whatsapp" viewBox="0 0 448 512">
    <path d="M380.9 97.1C339 55.1 283.2 32 223.9 32c-122.4 0-222 99.6-222 222 0 39.1 10.2 77.3 29.6 111L0 480l117.7-30.9c32.4 17.7 68.9 27 106.1 27h.1c122.3 0 224.1-99.6 224.1-222 0-59.3-25.2-115-67.1-157zm-157 341.6c-33.2 0-65.7-8.9-94-25.7l-6.7-4-69.8 18.3L72 359.2l-4.4-7c-18.5-29.4-28.2-63.3-28.2-98.2 0-101.7 82.8-184.5 184.6-184.5 49.3 0 95.6 19.2 130.4 54.1 34.8 34.9 56.2 81.2 56.1 130.5 0 101.8-84.9 184.6-186.6 184.6zm101.2-138.2c-5.5-2.8-32.8-16.2-37.9-18-5.1-1.9-8.8-2.8-12.5 2.8-3.7 5.6-14.3 18-17.6 21.8-3.2 3.7-6.5 4.2-12 1.4-32.6-16.3-54-29.1-75.5-66-5.7-9.8 5.7-9.1 16.3-30.3 1.8-3.7.9-6.9-.5-9.7-1.4-2.8-12.5-30.1-17.1-41.2-4.5-10.8-9.1-9.3-12.5-9.5-3.2-.2-6.9-.2-10.6-.2-3.7 0-9.7 1.4-14.8 6.9-5.1 5.6-19.4 19-19.4 46.3 0 27.3 19.9 53.7 22.6 57.4 2.8 3.7 39.1 59.7 94.8 83.8 35.2 15.2 49 16.5 66.6 13.9 10.7-1.6 32.8-13.4 37.4-26.4 4.6-13 4.6-24.1 3.2-26.4-1.3-2.5-5-3.9-10.5-6.6z"/>
</symbol></svg>