<svg xmlns="http://www.w3.org/2000/svg" viewBox="0 0 190.756 63.756">
    <path fill="#0c3387" d="M70.04 59.168l8.897-52.203h14.228l-8.902 52.203z"/>
    <path d="M135.87 8.25c-2.819-1.058-7.236-2.192-12.753-2.192-14.06 0-23.964 7.08-24.048 17.228-.079 7.501 7.07 11.685 12.468 14.183 5.538 2.559 7.4 4.19 7.374 6.476-.035 3.499-4.423 5.098-8.513 5.098-5.695 0-8.721-.791-13.394-2.74l-1.833-.83-1.997 11.687c3.324 1.457 9.469 2.72 15.85 2.785 14.957 0 24.667-6.999 24.777-17.835.054-5.938-3.737-10.458-11.946-14.184-4.974-2.415-8.02-4.026-7.987-6.472 0-2.17 2.578-4.49 8.148-4.49 4.653-.072 8.023.942 10.649 2l1.275.603 1.93-11.317" fill="#0c3387"/>
    <path d="M172.357 7.015h-10.995c-3.406 0-5.955.93-7.451 4.329l-21.132 47.841h14.941s2.443-6.433 2.996-7.845c1.633 0 16.148.022 18.223.022.426 1.827 1.731 7.822 1.731 7.822h13.203L172.357 7.015m-17.546 33.647c1.177-3.008 5.669-14.593 5.669-14.593-.084.139 1.168-3.022 1.887-4.982l.962 4.501s2.725 12.461 3.294 15.074h-11.812z" fill="#0c3387"/>
    <path d="M58.106 7.003L44.175 42.602l-1.484-7.234c-2.593-8.34-10.673-17.375-19.706-21.898l12.738 45.654 15.055-.018 22.4-52.103H58.106" fill="#0c3387"/>
    <path d="M31.252 6.971H8.308l-.182 1.086c17.851 4.321 29.662 14.764 34.565 27.311l-4.989-23.989c-.862-3.307-3.36-4.293-6.45-4.408" fill="#f90"/>
</svg>
